<svg width="32" height="32" viewBox="0 0 32 32" fill="none" xmlns="http://www.w3.org/2000/svg">
<path d="M16.0004 11.4001L13.7344 9.33106C14.0741 8.18537 14.0907 6.9681 13.7825 5.81355C13.4742 4.65899 12.8531 3.61202 11.9875 2.78813C11.1219 1.96424 10.0456 1.39545 8.87722 1.14451C7.70887 0.893578 6.49391 0.970246 5.36636 1.36606L9.00036 5.00006L5.00036 9.00006L1.36636 5.36606C0.971717 6.49354 0.895902 7.70807 1.14727 8.87587C1.39864 10.0437 1.96745 11.1195 2.79103 11.9847C3.61461 12.85 4.66103 13.4711 5.81502 13.7798C6.969 14.0884 8.18579 14.0726 9.33137 13.7341L11.2004 15.7791" fill="url(#paint0_linear)"/>
<path d="M16.0004 11.4001L13.7344 9.33106C14.0741 8.18537 14.0907 6.9681 13.7825 5.81355C13.4742 4.65899 12.8531 3.61202 11.9875 2.78813C11.1219 1.96424 10.0456 1.39545 8.87722 1.14451C7.70887 0.893578 6.49391 0.970246 5.36636 1.36606L9.00036 5.00006L5.00036 9.00006L1.36636 5.36606C0.971717 6.49354 0.895902 7.70807 1.14727 8.87587C1.39864 10.0437 1.96745 11.1195 2.79103 11.9847C3.61461 12.85 4.66103 13.4711 5.81502 13.7798C6.969 14.0884 8.18579 14.0726 9.33137 13.7341L11.2004 15.7791" stroke="#6B6B6B" stroke-width="1.5" stroke-linecap="round" stroke-linejoin="round"/>
<path d="M18.6416 23.9431L24.4836 30.3431C24.6658 30.5428 24.8867 30.7036 25.1328 30.8155C25.3789 30.9275 25.6452 30.9884 25.9155 30.9946C26.1858 31.0008 26.4546 30.9521 26.7055 30.8514C26.9565 30.7508 27.1844 30.6003 27.3756 30.4091L30.4136 27.3711C30.6048 27.1799 30.7553 26.952 30.856 26.701C30.9566 26.45 31.0053 26.1813 30.9991 25.911C30.993 25.6406 30.9321 25.3744 30.8201 25.1283C30.7081 24.8822 30.5474 24.6613 30.3476 24.4791L23.5996 18.3251" fill="url(#paint1_linear)"/>
<path d="M18.6416 23.9431L24.4836 30.3431C24.6658 30.5428 24.8867 30.7036 25.1328 30.8155C25.3789 30.9275 25.6452 30.9884 25.9155 30.9946C26.1858 31.0008 26.4546 30.9521 26.7055 30.8514C26.9565 30.7508 27.1844 30.6003 27.3756 30.4091L30.4136 27.3711C30.6048 27.1799 30.7553 26.952 30.856 26.701C30.9566 26.45 31.0053 26.1813 30.9991 25.911C30.993 25.6406 30.9321 25.3744 30.8201 25.1283C30.7081 24.8822 30.5474 24.6613 30.3476 24.4791L23.5996 18.3251" stroke="#6B6B6B" stroke-width="1.5" stroke-linecap="round" stroke-linejoin="round"/>
<path d="M30.6341 5.36612L27.0001 9.00012L23.0001 5.00012L26.6341 1.36612C25.5066 0.971472 24.292 0.895658 23.1242 1.14703C21.9564 1.3984 20.8807 1.9672 20.0154 2.79079C19.1502 3.61437 18.529 4.66078 18.2203 5.81477C17.9117 6.96876 17.9275 8.18555 18.2661 9.33112L1.65206 24.4841C1.4523 24.6664 1.29158 24.8872 1.17959 25.1333C1.06761 25.3794 1.00669 25.6457 1.00052 25.916C0.994352 26.1863 1.04306 26.4551 1.1437 26.7061C1.24434 26.957 1.39483 27.185 1.58606 27.3761L4.62406 30.4141C4.81522 30.6054 5.04316 30.7558 5.29413 30.8565C5.54509 30.9571 5.81385 31.0058 6.08417 30.9997C6.35449 30.9935 6.62076 30.9326 6.86687 30.8206C7.11298 30.7086 7.33382 30.5479 7.51606 30.3481L22.6691 13.7341C23.8147 14.0738 25.032 14.0905 26.1866 13.7822C27.3411 13.474 28.3881 12.8528 29.212 11.9872C30.0359 11.1217 30.6047 10.0453 30.8556 8.87698C31.1065 7.70863 31.0299 6.49366 30.6341 5.36612V5.36612Z" stroke="#6B6B6B" stroke-width="1.5" stroke-linecap="round" stroke-linejoin="round"/>
<defs>
<linearGradient id="paint0_linear" x1="8.50116" y1="0.999878" x2="8.50116" y2="15.7791" gradientUnits="userSpaceOnUse">
<stop stop-color="#EE7C48"/>
<stop offset="1" stop-color="#EDAA52"/>
</linearGradient>
<linearGradient id="paint1_linear" x1="24.8206" y1="18.3251" x2="24.8206" y2="30.9951" gradientUnits="userSpaceOnUse">
<stop stop-color="#EE7C48"/>
<stop offset="1" stop-color="#EDAA52"/>
</linearGradient>
</defs>
</svg>
