<svg width="32" height="32" viewBox="0 0 32 32" fill="none" xmlns="http://www.w3.org/2000/svg">
<path fill-rule="evenodd" clip-rule="evenodd" d="M15.25 16C15.25 15.5858 15.5858 15.25 16 15.25H20.25V14.5C20.25 13.638 20.5924 12.8114 21.2019 12.2019C21.8114 11.5924 22.638 11.25 23.5 11.25C24.362 11.25 25.1886 11.5924 25.7981 12.2019C26.4076 12.8114 26.75 13.638 26.75 14.5V15.25H30C30.4142 15.25 30.75 15.5858 30.75 16V30C30.75 30.4142 30.4142 30.75 30 30.75H16C15.5858 30.75 15.25 30.4142 15.25 30V26C15.25 25.5858 15.5858 25.25 16 25.25H17.5C17.9641 25.25 18.4092 25.0656 18.7374 24.7374C19.0656 24.4092 19.25 23.9641 19.25 23.5C19.25 23.0359 19.0656 22.5908 18.7374 22.2626C18.4092 21.9344 17.9641 21.75 17.5 21.75H16C15.5858 21.75 15.25 21.4142 15.25 21V16Z" fill="url(#paint0_linear)"/>
<path fill-rule="evenodd" clip-rule="evenodd" d="M16.75 16C16.75 16.4142 16.4142 16.75 16 16.75H11.75V17.5C11.75 18.362 11.4076 19.1886 10.7981 19.7981C10.1886 20.4076 9.36195 20.75 8.5 20.75C7.63805 20.75 6.8114 20.4076 6.2019 19.7981C5.59241 19.1886 5.25 18.362 5.25 17.5V16.75H2C1.58579 16.75 1.25 16.4142 1.25 16V2C1.25 1.58579 1.58579 1.25 2 1.25H16C16.4142 1.25 16.75 1.58579 16.75 2V6C16.75 6.41421 16.4142 6.75 16 6.75H14.5C14.0359 6.75 13.5908 6.93437 13.2626 7.26256C12.9344 7.59075 12.75 8.03587 12.75 8.5C12.75 8.96413 12.9344 9.40925 13.2626 9.73744C13.5908 10.0656 14.0359 10.25 14.5 10.25H16C16.4142 10.25 16.75 10.5858 16.75 11V16Z" fill="url(#paint1_linear)"/>
<path d="M2 16H6V17.5C6 18.163 6.26339 18.7989 6.73223 19.2678C7.20107 19.7366 7.83696 20 8.5 20C9.16304 20 9.79893 19.7366 10.2678 19.2678C10.7366 18.7989 11 18.163 11 17.5V16H21V14.5C21 13.837 21.2634 13.2011 21.7322 12.7322C22.2011 12.2634 22.837 12 23.5 12V12C24.163 12 24.7989 12.2634 25.2678 12.7322C25.7366 13.2011 26 13.837 26 14.5V16H30" stroke="#6B6B6B" stroke-width="1.5" stroke-linecap="round" stroke-linejoin="round"/>
<path d="M16 30V26H17.5C18.163 26 18.7989 25.7366 19.2678 25.2678C19.7366 24.7989 20 24.163 20 23.5C20 22.837 19.7366 22.2011 19.2678 21.7322C18.7989 21.2634 18.163 21 17.5 21H16V11H14.5C13.837 11 13.2011 10.7366 12.7322 10.2678C12.2634 9.79893 12 9.16304 12 8.5C12 7.83696 12.2634 7.20107 12.7322 6.73223C13.2011 6.26339 13.837 6 14.5 6H16V2" stroke="#6B6B6B" stroke-width="1.5" stroke-linecap="round" stroke-linejoin="round"/>
<path d="M30 2H2V30H30V2Z" stroke="#6B6B6B" stroke-width="1.5" stroke-linecap="round" stroke-linejoin="round"/>
<defs>
<linearGradient id="paint0_linear" x1="23" y1="11.25" x2="23" y2="30.75" gradientUnits="userSpaceOnUse">
<stop stop-color="#EE7C48"/>
<stop offset="1" stop-color="#EDAA52"/>
</linearGradient>
<linearGradient id="paint1_linear" x1="9" y1="20.75" x2="9" y2="1.25" gradientUnits="userSpaceOnUse">
<stop stop-color="#EE7C48"/>
<stop offset="1" stop-color="#EDAA52"/>
</linearGradient>
</defs>
</svg>
