<svg id="Layer_1" data-name="Layer 1" xmlns="http://www.w3.org/2000/svg" xmlns:xlink="http://www.w3.org/1999/xlink" viewBox="0 0 116 116"><defs><style>.cls-1,.cls-2{fill:#fff;}.cls-1,.cls-2,.cls-3{stroke:#6b6b6b;stroke-linecap:round;stroke-linejoin:round;}.cls-1,.cls-3{stroke-width:1.6px;}.cls-2{stroke-width:1.58px;}.cls-3{fill:none;}.cls-4{fill:url(#linear-gradient);}.cls-5{fill:url(#linear-gradient-2);}.cls-6{fill:#6b6b6b;}.cls-7{fill:#ffde83;}</style><linearGradient id="linear-gradient" x1="25.89" y1="42.52" x2="47.9" y2="42.52" gradientUnits="userSpaceOnUse"><stop offset="0" stop-color="#ff7002"/><stop offset="0.2" stop-color="#fd7a09"/><stop offset="0.55" stop-color="#f6941c"/><stop offset="0.99" stop-color="#ebbf3a"/><stop offset="1" stop-color="#ebc03b"/></linearGradient><linearGradient id="linear-gradient-2" x1="25.89" y1="51.52" x2="37.9" y2="51.52" xlink:href="#linear-gradient"/></defs><polyline class="cls-1" points="18.63 81.33 18.63 34.34 33.12 21.84 68.91 22.84"/><path class="cls-2" d="M78.08,44.9c7.58,0,12.62,5.85,12.62,13.26v2h0c7.45,0,12.94,4.92,12.94,12.2v.67"/><path class="cls-1" d="M51.12,82.12a12.43,12.43,0,0,0,2.33-12.54L74.94,45.07a12.48,12.48,0,0,0,13.76-18,.78.78,0,0,0-.58-.39.76.76,0,0,0-.65.25l-5.27,6-5.13-4.49,5.28-6a.8.8,0,0,0,.17-.68.79.79,0,0,0-.47-.52A12.48,12.48,0,0,0,66,37.22L44.49,61.72a12.48,12.48,0,1,0,6.63,20.4Z"/><path class="cls-1" d="M47.5,79a7.66,7.66,0,1,0-10.81.71A7.67,7.67,0,0,0,47.5,79ZM37.1,69.83a6.17,6.17,0,1,1,.58,8.7A6.17,6.17,0,0,1,37.1,69.83Z"/><circle class="cls-1" cx="41.33" cy="72.81" r="13.18"/><circle class="cls-1" cx="41.86" cy="68.38" r="4.3"/><path class="cls-3" d="M50.26,82.39a8.93,8.93,0,0,0-17.85,0"/><path class="cls-1" d="M11.8,96.71V96c0-9.42,7.63-18,17.05-18h0"/><polyline class="cls-3" points="18.63 34.34 33.15 34.34 33.15 21.84"/><rect class="cls-4" x="25.89" y="39.95" width="22.01" height="5.14"/><rect class="cls-3" x="25.89" y="39.95" width="22.01" height="5.14"/><rect class="cls-5" x="25.89" y="48.95" width="12.01" height="5.14"/><rect class="cls-3" x="25.89" y="48.95" width="12.01" height="5.14"/><path class="cls-6" d="M73.08,62.16,69.59,63.3l3.49,1.14,1.14,3.49,1.14-3.49,3.49-1.14-3.49-1.14-1.14-3.49Z"/><path class="cls-6" d="M101.14,33.53l-3.49,1.13,3.49,1.14,1.14,3.49,1.14-3.49,3.49-1.14-3.49-1.13L102.28,30Z"/><ellipse class="cls-7" cx="80.5" cy="87.64" rx="8.71" ry="8.93" transform="translate(-32.86 51.44) rotate(-29.72)"/><path class="cls-3" d="M85.72,80.21c4.77-2,8.35-2.67,9-1.48,1,1.76-4.8,7-13,11.62s-15.6,7-16.6,5.25c-.68-1.19,1.74-3.94,5.88-7"/></svg>