
<svg id="Layer_1" data-name="Layer 1" xmlns="http://www.w3.org/2000/svg" xmlns:xlink="http://www.w3.org/1999/xlink" viewBox="0 0 116 116"><defs><style>.cls-1{fill:#ffde83;}.cls-2,.cls-3,.cls-4{fill:#fff;}.cls-2,.cls-3,.cls-4,.cls-6{stroke:#6b6b6b;stroke-linecap:round;stroke-linejoin:round;}.cls-2{stroke-width:1.68px;stroke-dasharray:2 4;}.cls-3,.cls-6{stroke-width:1.6px;}.cls-4{stroke-width:1.66px;}.cls-5{fill:url(#linear-gradient);}.cls-6{fill:none;}.cls-7{fill:#6b6b6b;}</style><linearGradient id="linear-gradient" x1="53.08" y1="48.95" x2="53.08" y2="61.3" gradientUnits="userSpaceOnUse"><stop offset="0" stop-color="#ff7002"/><stop offset="0.2" stop-color="#fd7a09"/><stop offset="0.55" stop-color="#f6941c"/><stop offset="0.99" stop-color="#ebbf3a"/><stop offset="1" stop-color="#ebc03b"/></linearGradient></defs><polygon class="cls-1" points="14.99 74.41 14.99 44.16 29.75 44.16 33.69 44.16 32.25 67.78 26.76 69.99 23.17 74.41 14.99 74.41"/><polyline class="cls-2" points="46.49 30.73 46.49 19.42 100.34 19.42 102.34 71.18 84.31 71.18"/><path class="cls-3" d="M65.43,75.53,77,88.26a5,5,0,0,0,7,.29h0a5,5,0,0,0,.29-7l-11-12.14"/><circle class="cls-3" cx="53.05" cy="54.51" r="24.67"/><circle class="cls-4" cx="53.05" cy="54.51" r="18.36"/><ellipse class="cls-3" cx="53.05" cy="55.13" rx="13.03" ry="8.74"/><circle class="cls-5" cx="53.08" cy="55.13" r="6.17"/><circle class="cls-6" cx="53.08" cy="55.13" r="6.17"/><path class="cls-6" d="M31.15,67.78c-5.68,1.49-9.27,6.76-9.27,13.16V83h0"/><path class="cls-7" d="M23.1,27,26.34,28,23.1,29.09,22,32.33,21,29.09,17.74,28,21,27,22,23.73Z"/><path class="cls-7" d="M90.68,53l3.25,1.05-3.25,1.06L89.62,58.4l-1.05-3.25-3.25-1.06L88.57,53l1.05-3.25Z"/><circle class="cls-3" cx="21.67" cy="86.53" r="13.18"/><circle class="cls-3" cx="21.14" cy="82.11" r="4.3"/><path class="cls-6" d="M12.75,96.12a8.93,8.93,0,0,1,17.85,0"/><path class="cls-3" d="M97.19,88h0a10.14,10.14,0,0,1,10.15,10.14"/><path class="cls-3" d="M77.42,72.59A12.89,12.89,0,0,1,96.9,88"/></svg>