<svg width="48" height="48" viewBox="0 0 48 48" fill="none" xmlns="http://www.w3.org/2000/svg">
<path d="M23.9996 17.1L20.6006 13.9965C21.1102 12.278 21.1351 10.4521 20.6728 8.72026C20.2104 6.98843 19.2786 5.41797 17.9803 4.18213C16.6819 2.94629 15.0674 2.09311 13.3149 1.71671C11.5623 1.34031 9.73988 1.45531 8.04857 2.04903L13.4996 7.50003L7.49957 13.5L2.04857 8.04903C1.4566 9.74025 1.34288 11.562 1.71993 13.3138C2.09699 15.0655 2.95019 16.6791 4.18557 17.977C5.42095 19.2749 6.99057 20.2066 8.72155 20.6696C10.4525 21.1326 12.2777 21.1089 13.9961 20.601L16.7996 23.6685" fill="url(#paint0_linear)"/>
<path d="M23.9996 17.1L20.6006 13.9965C21.1102 12.278 21.1351 10.4521 20.6728 8.72026C20.2104 6.98843 19.2786 5.41797 17.9803 4.18213C16.6819 2.94629 15.0674 2.09311 13.3149 1.71671C11.5623 1.34031 9.73988 1.45531 8.04857 2.04903L13.4996 7.50003L7.49957 13.5L2.04857 8.04903C1.4566 9.74025 1.34288 11.562 1.71993 13.3138C2.09699 15.0655 2.95019 16.6791 4.18557 17.977C5.42095 19.2749 6.99057 20.2066 8.72155 20.6696C10.4525 21.1326 12.2777 21.1089 13.9961 20.601L16.7996 23.6685" stroke="#6B6B6B" stroke-width="1.5" stroke-linecap="round" stroke-linejoin="round"/>
<path d="M27.9629 35.9145L36.7259 45.5145C36.9992 45.8142 37.3305 46.0553 37.6997 46.2232C38.0688 46.3912 38.4682 46.4826 38.8737 46.4919C39.2792 46.5011 39.6823 46.428 40.0588 46.2771C40.4352 46.1261 40.7772 45.9004 41.0639 45.6135L45.6209 41.0565C45.9077 40.7698 46.1335 40.4279 46.2844 40.0514C46.4354 39.675 46.5084 39.2719 46.4992 38.8664C46.4899 38.4609 46.3986 38.0615 46.2306 37.6923C46.0626 37.3232 45.8215 36.9919 45.5219 36.7185L35.3999 27.4875" fill="url(#paint1_linear)"/>
<path d="M27.9629 35.9145L36.7259 45.5145C36.9992 45.8142 37.3305 46.0553 37.6997 46.2232C38.0688 46.3912 38.4682 46.4826 38.8737 46.4919C39.2792 46.5011 39.6823 46.428 40.0588 46.2771C40.4352 46.1261 40.7772 45.9004 41.0639 45.6135L45.6209 41.0565C45.9077 40.7698 46.1335 40.4279 46.2844 40.0514C46.4354 39.675 46.5084 39.2719 46.4992 38.8664C46.4899 38.4609 46.3986 38.0615 46.2306 37.6923C46.0626 37.3232 45.8215 36.9919 45.5219 36.7185L35.3999 27.4875" stroke="#6B6B6B" stroke-width="1.5" stroke-linecap="round" stroke-linejoin="round"/>
<path d="M45.9511 8.0482L40.5001 13.4992L34.5001 7.4992L39.9511 2.0482C38.2599 1.45623 36.4381 1.34251 34.6864 1.71957C32.9347 2.09662 31.321 2.94982 30.0231 4.1852C28.7252 5.42058 27.7935 6.9902 27.3305 8.72118C26.8675 10.4522 26.8912 12.2773 27.3991 13.9957L2.47809 36.7252C2.17846 36.9986 1.93737 37.3298 1.76939 37.699C1.60141 38.0682 1.51003 38.4676 1.50078 38.873C1.49153 39.2785 1.56459 39.6817 1.71555 40.0581C1.86651 40.4345 2.09224 40.7765 2.37909 41.0632L6.93609 45.6202C7.22282 45.9071 7.56475 46.1328 7.94119 46.2837C8.31763 46.4347 8.72078 46.5078 9.12626 46.4985C9.53174 46.4893 9.93113 46.3979 10.3003 46.2299C10.6695 46.0619 11.0007 45.8208 11.2741 45.5212L34.0036 20.6002C35.7221 21.1098 37.548 21.1348 39.2799 20.6724C41.0117 20.21 42.5821 19.2783 43.818 17.9799C45.0538 16.6815 45.907 15.067 46.2834 13.3145C46.6598 11.562 46.5448 9.73952 45.9511 8.0482V8.0482Z" stroke="#6B6B6B" stroke-width="1.5" stroke-linecap="round" stroke-linejoin="round"/>
<defs>
<linearGradient id="paint0_linear" x1="12.7508" y1="1.49976" x2="12.7508" y2="23.6685" gradientUnits="userSpaceOnUse">
<stop stop-color="#EE7C48"/>
<stop offset="1" stop-color="#EDAA52"/>
</linearGradient>
<linearGradient id="paint1_linear" x1="37.2314" y1="27.4875" x2="37.2314" y2="46.4926" gradientUnits="userSpaceOnUse">
<stop stop-color="#EE7C48"/>
<stop offset="1" stop-color="#EDAA52"/>
</linearGradient>
</defs>
</svg>
