<svg width="48" height="48" viewBox="0 0 48 48" fill="none" xmlns="http://www.w3.org/2000/svg">
<path d="M34.5 45L23.916 46.5L13.5 45V28.5L23.916 30L34.5 28.5V45Z" fill="url(#paint0_linear)" stroke="#6B6B6B" stroke-width="1.5" stroke-linecap="round" stroke-linejoin="round"/>
<path d="M23.916 16.5C21.9269 16.5 20.0192 15.7098 18.6127 14.3033C17.2062 12.8968 16.416 10.9891 16.416 9V9C16.416 7.01088 17.2062 5.10322 18.6127 3.6967C20.0192 2.29018 21.9269 1.5 23.916 1.5V1.5C24.9009 1.5 25.8762 1.69399 26.7861 2.0709C27.6961 2.44781 28.5229 3.00026 29.2193 3.6967C29.9158 4.39314 30.4682 5.21993 30.8451 6.12987C31.222 7.03982 31.416 8.01509 31.416 9V9C31.416 10.9891 30.6258 12.8968 29.2193 14.3033C27.8128 15.7098 25.9051 16.5 23.916 16.5V16.5Z" stroke="#6B6B6B" stroke-width="1.5" stroke-linecap="round" stroke-linejoin="round"/>
<path d="M19.4999 37.5L4.53742 41.241C4.26288 41.3096 3.97454 41.2991 3.7057 41.2108C3.43686 41.1225 3.19848 40.9599 3.0181 40.7419C2.83771 40.5239 2.72268 40.2593 2.68629 39.9787C2.64989 39.698 2.69362 39.4128 2.81242 39.156L9.69592 24.243C9.93605 23.7226 10.3202 23.2819 10.803 22.973C11.2857 22.6641 11.8468 22.5 12.4199 22.5H35.5724C36.1473 22.4999 36.71 22.665 37.1938 22.9756C37.6775 23.2862 38.0618 23.7292 38.3009 24.252L45.1184 39.1605C45.236 39.4175 45.2787 39.7025 45.2414 39.9827C45.2041 40.2628 45.0884 40.5267 44.9076 40.744C44.7269 40.9613 44.4884 41.1231 44.2197 41.2108C43.951 41.2984 43.663 41.3084 43.3889 41.2395L28.4999 37.5" stroke="#6B6B6B" stroke-width="1.5" stroke-linecap="round" stroke-linejoin="round"/>
<defs>
<linearGradient id="paint0_linear" x1="24" y1="28.5" x2="24" y2="46.5" gradientUnits="userSpaceOnUse">
<stop stop-color="#EE7C48"/>
<stop offset="1" stop-color="#EDAA52"/>
</linearGradient>
</defs>
</svg>
