<svg id="Layer_1" data-name="Layer 1" xmlns="http://www.w3.org/2000/svg" xmlns:xlink="http://www.w3.org/1999/xlink" viewBox="0 0 116 116"><defs><style>.cls-1{fill:#ffde83;}.cls-11,.cls-2,.cls-3{fill:#fff;}.cls-11,.cls-12,.cls-3,.cls-6{stroke:#6b6b6b;}.cls-11,.cls-12,.cls-3,.cls-6,.cls-9{stroke-linecap:round;stroke-linejoin:round;}.cls-3,.cls-6{stroke-width:1.72px;}.cls-4{fill:url(#linear-gradient);}.cls-5{fill:url(#linear-gradient-2);}.cls-12,.cls-6,.cls-9{fill:none;}.cls-7{fill:#262626;}.cls-8{opacity:0.7;}.cls-9{stroke:#3a3836;stroke-width:1.91px;}.cls-10{fill:#6b6b6b;}.cls-11,.cls-12{stroke-width:1.6px;}</style><linearGradient id="linear-gradient" x1="24.57" y1="58.7" x2="35" y2="58.7" gradientUnits="userSpaceOnUse"><stop offset="0" stop-color="#ff7002"/><stop offset="0.2" stop-color="#fd7a09"/><stop offset="0.55" stop-color="#f6941c"/><stop offset="0.99" stop-color="#ebbf3a"/><stop offset="1" stop-color="#ebc03b"/></linearGradient><linearGradient id="linear-gradient-2" x1="-360.83" y1="-3944.14" x2="-373.41" y2="-3959.27" gradientTransform="translate(-1014.49 -3777.74) rotate(169.74)" xlink:href="#linear-gradient"/></defs><circle class="cls-1" cx="83.28" cy="37.76" r="13.81"/><path class="cls-2" d="M105.15,33.89s-13.91-3.64-13.68,9.7c0,0-16.8-3.41-21.71,13.36s31.2.55,31.2.55Z"/><path class="cls-3" d="M45.37,49.71,48,51.15a.89.89,0,0,1,.22.16.82.82,0,0,1,0,1.16l-5.13,5.8a1.07,1.07,0,0,1-.22.15.83.83,0,0,1-1.1-.36L40.1,55.67"/><path class="cls-4" d="M35,59.33l-.51,8.3C22,60.73,24.87,49.78,24.87,49.78"/><path class="cls-5" d="M49.46,43.92l8.28-.76C50.45,30.84,39.59,34.1,39.59,34.1"/><path class="cls-6" d="M36,59l-.67,9.23C19.6,58.93,25.18,49.06,25.18,49.06"/><path class="cls-6" d="M49.11,44.91l9.21-1c-9.75-15.38-19.61-9.57-19.61-9.57"/><path class="cls-7" d="M27.87,51.15c0,.1,0,.19,0,.19s.15.17.15,0v-.17C28.06,51,27.87,51.06,27.87,51.15Zm-4.25-2.53c-.13-.1,0,.09-.26-.1s0-.14.28,0S23.76,48.71,23.62,48.62Zm10.6,10.26.12.1h0a.49.49,0,0,0-.29-.14Zm-1.43-3.37c.14,0,0,0,.14,0s0,.13,0,.13S32.66,55.5,32.79,55.51Zm-.55-.34s-.13-.21,0-.21.13,0,.13,0v.17h-.13Zm-1.3-1h.17l-.11.11S31,54.15,30.94,54.15Zm-3.18-3.27a.33.33,0,0,1,.28-.09S28,51,27.81,51Z"/><g class="cls-8"><path class="cls-2" d="M16.68,40.92,24,48.22,36.12,59.69l8.12-8.18,4.91-5.4L39.3,35.76,33.07,30a22.56,22.56,0,0,0-16.75-6.45l-1.09.14h0c-.07.82-1.74.43-1.75,1.18C13.65,29.89,12.3,36.68,16.68,40.92Zm7.72-.84c-1.51-1.53-2.12-3.12-.59-4.65s4.36-2.46,5.87-.94A5.18,5.18,0,0,1,29.31,41c-1.53,1.51-3.39.64-4.91-.88Z"/></g><path class="cls-3" d="M13.92,24.47s-.38,1.92-.49,2.82a19.46,19.46,0,0,0,5.94,16.2L25,49l11,10.65,6.7-7.32,6.77-7.25L39,35,33,29.15a19.1,19.1,0,0,0-17.8-5,11.71,11.71,0,0,0-1.32.37Z"/><ellipse class="cls-9" cx="27" cy="37.1" rx="3.89" ry="3.91" transform="translate(-6.26 5.49) rotate(-10.42)"/><ellipse class="cls-3" cx="27" cy="37.1" rx="3.89" ry="3.91" transform="translate(-6.26 5.49) rotate(-10.42)"/><path class="cls-3" d="M43.2,58.17,56.68,75.54H51.47A15.37,15.37,0,0,0,36.1,90.91h-.89a9.4,9.4,0,0,0-9.4,9.4h0"/><path class="cls-6" d="M48.25,52.32,68.91,66v-4A18.9,18.9,0,0,1,87.81,43H91.1a10.11,10.11,0,0,1,10.11-10.1"/><path class="cls-10" d="M56.07,17.35l-3.49,1.14,3.49,1.14,1.14,3.49,1.13-3.49,3.5-1.14-3.5-1.14-1.13-3.49Z"/><path class="cls-10" d="M56.07,93l-3.49,1.14,3.49,1.13,1.14,3.49,1.13-3.49,3.5-1.13L58.34,93l-1.13-3.49Z"/><circle class="cls-11" cx="82.6" cy="82.5" r="13.18"/><circle class="cls-11" cx="83.13" cy="78.07" r="4.3"/><path class="cls-12" d="M91.53,92.09a8.93,8.93,0,0,0-17.86,0"/></svg>