<svg width="48" height="48" viewBox="0 0 48 48" fill="none" xmlns="http://www.w3.org/2000/svg">
<path d="M31.5 24H16.5V34.5H31.5V24Z" fill="url(#paint0_linear)" stroke="#6B6B6B" stroke-width="1.5" stroke-linecap="round" stroke-linejoin="round"/>
<path d="M19.5 24V19.5C19.5 18.3065 19.9741 17.1619 20.818 16.318C21.6619 15.4741 22.8065 15 24 15V15C25.1935 15 26.3381 15.4741 27.182 16.318C28.0259 17.1619 28.5 18.3065 28.5 19.5V24" stroke="#6B6B6B" stroke-width="1.5" stroke-linecap="round" stroke-linejoin="round"/>
<path d="M42 28.5C42 33.2739 40.1036 37.8523 36.7279 41.2279C33.3523 44.6036 28.7739 46.5 24 46.5C19.2261 46.5 14.6477 44.6036 11.2721 41.2279C7.89642 37.8523 6 33.2739 6 28.5V7.5L24 3L42 7.5V28.5Z" stroke="#6B6B6B" stroke-width="1.5" stroke-linecap="round" stroke-linejoin="round"/>
<defs>
<linearGradient id="paint0_linear" x1="24" y1="24" x2="24" y2="34.5" gradientUnits="userSpaceOnUse">
<stop stop-color="#EE7C48"/>
<stop offset="1" stop-color="#EDAA52"/>
</linearGradient>
</defs>
</svg>
