<svg width="48" height="48" viewBox="0 0 48 48" fill="none" xmlns="http://www.w3.org/2000/svg">
<path fill-rule="evenodd" clip-rule="evenodd" d="M22.875 24C22.875 23.3787 23.3787 22.875 24 22.875H30.375V21.75C30.375 20.4571 30.8886 19.2171 31.8029 18.3029C32.7171 17.3886 33.9571 16.875 35.25 16.875C36.5429 16.875 37.7829 17.3886 38.6971 18.3029C39.6114 19.2171 40.125 20.4571 40.125 21.75V22.875H45C45.6213 22.875 46.125 23.3787 46.125 24V45C46.125 45.6213 45.6213 46.125 45 46.125H24C23.3787 46.125 22.875 45.6213 22.875 45V39C22.875 38.3787 23.3787 37.875 24 37.875H26.25C26.9462 37.875 27.6139 37.5984 28.1062 37.1062C28.5984 36.6139 28.875 35.9462 28.875 35.25C28.875 34.5538 28.5984 33.8861 28.1062 33.3938C27.6139 32.9016 26.9462 32.625 26.25 32.625H24C23.3787 32.625 22.875 32.1213 22.875 31.5V24Z" fill="url(#paint0_linear)"/>
<path fill-rule="evenodd" clip-rule="evenodd" d="M25.125 24C25.125 24.6213 24.6213 25.125 24 25.125H17.625V26.25C17.625 27.5429 17.1114 28.7829 16.1971 29.6971C15.2829 30.6114 14.0429 31.125 12.75 31.125C11.4571 31.125 10.2171 30.6114 9.30285 29.6971C8.38862 28.7829 7.875 27.5429 7.875 26.25V25.125H3C2.37868 25.125 1.875 24.6213 1.875 24V3C1.875 2.37868 2.37868 1.875 3 1.875H24C24.6213 1.875 25.125 2.37868 25.125 3V9C25.125 9.62132 24.6213 10.125 24 10.125H21.75C21.0538 10.125 20.3861 10.4016 19.8938 10.8938C19.4016 11.3861 19.125 12.0538 19.125 12.75C19.125 13.4462 19.4016 14.1139 19.8938 14.6062C20.3861 15.0984 21.0538 15.375 21.75 15.375H24C24.6213 15.375 25.125 15.8787 25.125 16.5V24Z" fill="url(#paint1_linear)"/>
<path d="M3 24H9V26.25C9 27.2446 9.39509 28.1984 10.0983 28.9017C10.8016 29.6049 11.7554 30 12.75 30C13.7446 30 14.6984 29.6049 15.4017 28.9017C16.1049 28.1984 16.5 27.2446 16.5 26.25V24H31.5V21.75C31.5 20.7554 31.8951 19.8016 32.5983 19.0983C33.3016 18.3951 34.2554 18 35.25 18V18C36.2446 18 37.1984 18.3951 37.9017 19.0983C38.6049 19.8016 39 20.7554 39 21.75V24H45" stroke="#6B6B6B" stroke-width="1.5" stroke-linecap="round" stroke-linejoin="round"/>
<path d="M24 45V39H26.25C27.2446 39 28.1984 38.6049 28.9017 37.9017C29.6049 37.1984 30 36.2446 30 35.25C30 34.2554 29.6049 33.3016 28.9017 32.5983C28.1984 31.8951 27.2446 31.5 26.25 31.5H24V16.5H21.75C20.7554 16.5 19.8016 16.1049 19.0983 15.4017C18.3951 14.6984 18 13.7446 18 12.75C18 11.7554 18.3951 10.8016 19.0983 10.0983C19.8016 9.39509 20.7554 9 21.75 9H24V3" stroke="#6B6B6B" stroke-width="1.5" stroke-linecap="round" stroke-linejoin="round"/>
<path d="M45 3H3V45H45V3Z" stroke="#6B6B6B" stroke-width="1.5" stroke-linecap="round" stroke-linejoin="round"/>
<defs>
<linearGradient id="paint0_linear" x1="34.5" y1="16.875" x2="34.5" y2="46.125" gradientUnits="userSpaceOnUse">
<stop stop-color="#EE7C48"/>
<stop offset="1" stop-color="#EDAA52"/>
</linearGradient>
<linearGradient id="paint1_linear" x1="13.5" y1="31.125" x2="13.5" y2="1.875" gradientUnits="userSpaceOnUse">
<stop stop-color="#EE7C48"/>
<stop offset="1" stop-color="#EDAA52"/>
</linearGradient>
</defs>
</svg>
