<svg width="48" height="48" viewBox="0 0 48 48" fill="none" xmlns="http://www.w3.org/2000/svg">
<path d="M35.9693 28.4685L43.8863 36.3855C44.4773 36.9764 44.9462 37.6779 45.2661 38.45C45.586 39.2222 45.7506 40.0497 45.7506 40.8855C45.7506 41.7213 45.586 42.5488 45.2661 43.321C44.9462 44.0931 44.4773 44.7946 43.8863 45.3855C43.2954 45.9766 42.5938 46.4454 41.8217 46.7653C41.0496 47.0852 40.222 47.2499 39.3863 47.2499C38.5505 47.2499 37.7229 47.0852 36.9508 46.7653C36.1787 46.4454 35.4771 45.9766 34.8863 45.3855L27.4688 37.968" fill="#F59C54"/>
<path d="M35.9693 28.4685L43.8863 36.3855C44.4773 36.9764 44.9462 37.6779 45.2661 38.45C45.586 39.2222 45.7506 40.0497 45.7506 40.8855C45.7506 41.7213 45.586 42.5488 45.2661 43.321C44.9462 44.0931 44.4773 44.7946 43.8863 45.3855C43.2954 45.9766 42.5938 46.4454 41.8217 46.7653C41.0496 47.0852 40.222 47.2499 39.3863 47.2499C38.5505 47.2499 37.7229 47.0852 36.9508 46.7653C36.1787 46.4454 35.4771 45.9766 34.8863 45.3855L27.4688 37.968" stroke="#6B6B6B" stroke-width="1.5" stroke-linecap="round" stroke-linejoin="round"/>
<path d="M22.7085 19.7085L8.25 5.25L3.75 9.75L18.0015 24.0015" fill="#F59C54"/>
<path d="M22.7085 19.7085L8.25 5.25L3.75 9.75L18.0015 24.0015" stroke="#6B6B6B" stroke-width="1.5" stroke-linecap="round" stroke-linejoin="round"/>
<path d="M46.7011 8.799L41.2501 14.25L35.2501 8.25L40.7011 2.799C39.0099 2.20703 37.1881 2.0933 35.4364 2.47036C33.6847 2.84742 32.071 3.70062 30.7731 4.936C29.4752 6.17137 28.5435 7.74099 28.0805 9.47197C27.6175 11.203 27.6412 13.0281 28.1491 14.7465L3.22809 37.476C2.92846 37.7493 2.68737 38.0806 2.51939 38.4498C2.35141 38.8189 2.26003 39.2183 2.25078 39.6238C2.24153 40.0293 2.31459 40.4324 2.46555 40.8089C2.61651 41.1853 2.84224 41.5273 3.12909 41.814L7.68609 46.371C7.97282 46.6578 8.31475 46.8836 8.69119 47.0345C9.06763 47.1855 9.47078 47.2586 9.87626 47.2493C10.2817 47.24 10.6811 47.1487 11.0503 46.9807C11.4195 46.8127 11.7507 46.5716 12.0241 46.272L34.7536 21.351C36.4721 21.8606 38.298 21.8856 40.0299 21.4232C41.7617 20.9608 43.3321 20.029 44.568 18.7307C45.8038 17.4323 46.657 15.8178 47.0334 14.0653C47.4098 12.3128 47.2948 10.4903 46.7011 8.799V8.799Z" stroke="#6B6B6B" stroke-width="1.5" stroke-linecap="round" stroke-linejoin="round"/>
</svg>
