<svg xmlns="http://www.w3.org/2000/svg" xmlns:xlink="http://www.w3.org/1999/xlink" viewBox="0 0 116 116"><defs><style>.cls-1{isolation:isolate;}.cls-2,.cls-3,.cls-5{fill:#fff;}.cls-2,.cls-4,.cls-5{stroke:#6b6b6b;stroke-linecap:round;stroke-linejoin:round;stroke-width:1.6px;}.cls-2{mix-blend-mode:multiply;opacity:0.2;}.cls-4{fill:none;}.cls-6{fill:#ffde83;}.cls-7{fill:#6b6b6b;}.cls-8{fill:url(#linear-gradient);}</style><linearGradient id="linear-gradient" x1="57.86" y1="32.29" x2="57.86" y2="47.75" gradientUnits="userSpaceOnUse"><stop offset="0" stop-color="#ff7002"/><stop offset="0.2" stop-color="#fd7a09"/><stop offset="0.55" stop-color="#f6941c"/><stop offset="0.99" stop-color="#ebbf3a"/><stop offset="1" stop-color="#ebc03b"/></linearGradient></defs><g class="cls-1"><g id="Layer_1" data-name="Layer 1"><path class="cls-2" d="M88.27,89.73s2.4,5.08-3.81,7.55c0,0,6.85-.07,7.41-4Z"/><circle class="cls-3" cx="57.86" cy="38.9" r="13.18"/><circle class="cls-4" cx="57.86" cy="38.9" r="13.18"/><circle class="cls-5" cx="57.86" cy="38.9" r="13.18"/><circle class="cls-5" cx="32.82" cy="84.57" r="13.18"/><circle class="cls-5" cx="32.94" cy="80.7" r="4.3"/><circle class="cls-3" cx="83.12" cy="84.57" r="13.18"/><circle class="cls-4" cx="83.12" cy="84.57" r="13.18"/><circle class="cls-5" cx="83.12" cy="84.57" r="13.18"/><circle class="cls-5" cx="83.24" cy="80.7" r="4.3"/><line class="cls-5" x1="39.75" y1="73.54" x2="52.22" y2="51.19"/><line class="cls-5" x1="76.51" y1="72.99" x2="63.46" y2="51.72"/><line class="cls-5" x1="45.79" y1="86.34" x2="70.11" y2="86.34"/><path class="cls-5" d="M44.13,37.79H42.64a19,19,0,0,0-19,19h0l0,0c-7,0-12.19,5.66-12.19,12.68h0"/><path class="cls-4" d="M96.47,85.61a13.3,13.3,0,0,1,8.11,12.24"/><ellipse class="cls-6" cx="89.23" cy="24.35" rx="8.93" ry="8.71" transform="translate(18.49 83.95) rotate(-55.38)"/><path class="cls-4" d="M98.18,25.84c3.86,3.43,6,6.37,5.25,7.49C102.28,35,95.07,32,87.34,26.68S74.27,15.66,75.42,14c.77-1.12,4.3-.13,8.89,2.26"/><path class="cls-7" d="M18.27,29.67l3.24,1.06-3.24,1.06L17.21,35l-1.06-3.24-3.24-1.06,3.24-1.06,1.06-3.24Z"/><path class="cls-7" d="M94.66,54.43l3.24,1.06-3.24,1.06L93.6,59.79l-1.06-3.24L89.3,55.49l3.24-1.06,1.06-3.24Z"/><path class="cls-4" d="M23.94,94.26a8.93,8.93,0,1,1,17.85,0"/><path class="cls-4" d="M73.94,94.26a8.93,8.93,0,1,1,17.85,0"/><path class="cls-8" d="M66.65,37.59a5.22,5.22,0,0,0-5.14-5.3,5.07,5.07,0,0,0-3.65,1.56,5.07,5.07,0,0,0-3.65-1.56,5.22,5.22,0,0,0-5.14,5.3,5.31,5.31,0,0,0,1.82,4l0,0,7.26,6.12,7.31-6.67,0,0A5.35,5.35,0,0,0,66.65,37.59Z"/><path class="cls-4" d="M66.65,37.59a5.22,5.22,0,0,0-5.14-5.3,5.07,5.07,0,0,0-3.65,1.56,5.07,5.07,0,0,0-3.65-1.56,5.22,5.22,0,0,0-5.14,5.3,5.31,5.31,0,0,0,1.82,4l0,0,7.26,6.12,7.31-6.67,0,0A5.35,5.35,0,0,0,66.65,37.59Z"/></g></g></svg>