<svg xmlns="http://www.w3.org/2000/svg" xmlns:xlink="http://www.w3.org/1999/xlink" viewBox="0 0 116 116"><defs><style>.cls-1{isolation:isolate;}.cls-2{fill:#ffde83;}.cls-3{fill:#e5e5e5;mix-blend-mode:multiply;}.cls-4{fill:#fff;}.cls-4,.cls-7{stroke:#6b6b6b;stroke-linecap:round;stroke-linejoin:round;stroke-width:1.6px;}.cls-5{opacity:0.7;fill:url(#linear-gradient);}.cls-6{fill:url(#linear-gradient-2);}.cls-7{fill:none;}.cls-8{fill:#6b6b6b;}</style><linearGradient id="linear-gradient" x1="52.25" y1="43.87" x2="69.89" y2="43.87" gradientUnits="userSpaceOnUse"><stop offset="0" stop-color="#ff7002"/><stop offset="0.3" stop-color="#fe7304"/><stop offset="0.5" stop-color="#fc7c0a"/><stop offset="0.68" stop-color="#f88b15"/><stop offset="0.84" stop-color="#f3a125"/><stop offset="0.98" stop-color="#ecbd39"/><stop offset="1" stop-color="#ebc03b"/></linearGradient><linearGradient id="linear-gradient-2" x1="61.07" y1="35.43" x2="61.07" y2="52.31" gradientUnits="userSpaceOnUse"><stop offset="0" stop-color="#ff7002"/><stop offset="0.2" stop-color="#fd7a09"/><stop offset="0.55" stop-color="#f6941c"/><stop offset="0.99" stop-color="#ebbf3a"/><stop offset="1" stop-color="#ebc03b"/></linearGradient></defs><g class="cls-1"><g id="Layer_1" data-name="Layer 1"><circle class="cls-2" cx="39.81" cy="26.99" r="12.87"/><path class="cls-3" d="M52.77,68.17s8.94,4.47,17.16-4.06c0,0-11.65,6.35-21.12-2.7C48.81,61.41,52.87,64.84,52.77,68.17Z"/><path class="cls-4" d="M50.39,62.8s8.53,12.74-1.91,25.75"/><path class="cls-4" d="M71.81,62.8s-8.54,12.74,1.9,25.75"/><path class="cls-4" d="M82.35,30.79A13.85,13.85,0,1,1,77.16,57.3"/><path class="cls-4" d="M82.55,37a7.67,7.67,0,1,1-1.9,15l-.46-.21"/><path class="cls-4" d="M40.17,30.79A13.85,13.85,0,1,0,45.36,57.3"/><path class="cls-4" d="M40,37a7.67,7.67,0,1,0,1.9,15l.44-.08"/><path class="cls-5" d="M62,36l1.89,3.83a1.08,1.08,0,0,0,.81.59l4.23.61a1.08,1.08,0,0,1,.6,1.84l-3.07,3a1.1,1.1,0,0,0-.3,1l.72,4.21a1.07,1.07,0,0,1-1.56,1.13l-3.79-2a1,1,0,0,0-1,0l-3.78,2a1.07,1.07,0,0,1-1.56-1.13L56,46.84a1.1,1.1,0,0,0-.31-1l-3.06-3a1.08,1.08,0,0,1,.59-1.84l4.23-.61a1.06,1.06,0,0,0,.81-.59L60.11,36A1.08,1.08,0,0,1,62,36Z"/><path class="cls-4" d="M40.81,26.3c-1.08,3.48-.91,7.29-.91,11.3,0,16,9.59,29,21.43,29s21.42-13,21.42-29c0-4,.18-7.82-.91-11.3h-41Z"/><path class="cls-6" d="M62,36l1.89,3.83a1.08,1.08,0,0,0,.81.59l4.23.61a1.08,1.08,0,0,1,.6,1.84l-3.07,3a1.1,1.1,0,0,0-.3,1l.72,4.21a1.07,1.07,0,0,1-1.56,1.13l-3.79-2a1,1,0,0,0-1,0l-3.78,2a1.07,1.07,0,0,1-1.56-1.13L56,46.84a1.1,1.1,0,0,0-.31-1l-3.06-3a1.08,1.08,0,0,1,.59-1.84l4.23-.61a1.06,1.06,0,0,0,.81-.59L60.11,36A1.08,1.08,0,0,1,62,36Z"/><path class="cls-7" d="M62,36l1.89,3.83a1.08,1.08,0,0,0,.81.59l4.23.61a1.08,1.08,0,0,1,.6,1.84l-3.07,3a1.1,1.1,0,0,0-.3,1l.72,4.21a1.07,1.07,0,0,1-1.56,1.13l-3.79-2a1,1,0,0,0-1,0l-3.78,2a1.07,1.07,0,0,1-1.56-1.13L56,46.84a1.1,1.1,0,0,0-.31-1l-3.06-3a1.08,1.08,0,0,1,.59-1.84l4.23-.61a1.06,1.06,0,0,0,.81-.59L60.11,36A1.08,1.08,0,0,1,62,36Z"/><path class="cls-4" d="M48,88.55H73.57A4.39,4.39,0,0,1,78,92.94v3.23a0,0,0,0,1,0,0H43.6a0,0,0,0,1,0,0V92.94A4.39,4.39,0,0,1,48,88.55Z"/><path class="cls-8" d="M19.27,28.67l3.24,1.06-3.24,1.06L18.21,34l-1.06-3.24-3.24-1.06,3.24-1.06,1.06-3.24Z"/><circle class="cls-4" cx="87.46" cy="27.3" r="13.18"/><circle class="cls-4" cx="86.93" cy="22.88" r="4.3"/><path class="cls-7" d="M78.53,36.89a8.93,8.93,0,0,1,17.85,0"/><circle class="cls-4" cx="23.86" cy="78.5" r="13.18"/><circle class="cls-4" cx="23.33" cy="74.07" r="4.3"/><path class="cls-7" d="M14.94,88.09a8.93,8.93,0,1,1,17.85,0"/><path class="cls-4" d="M71.88,63.42h1.49a19,19,0,0,1,19,19h0l0,0c7,0,12.19,5.66,12.19,12.68h0"/><path class="cls-8" d="M100.81,66.26l3.24,1.06-3.24,1.06-1.06,3.24-1.06-3.24-3.24-1.06,3.24-1.06L99.75,63Z"/></g></g></svg>