<svg width="32" height="32" viewBox="0 0 32 32" fill="none" xmlns="http://www.w3.org/2000/svg">
<path d="M10.713 13.719C10.232 12.705 9.197 12 8 12H4C2.343 12 1 13.343 1 15V20H3V27H9" stroke="#6B6B6B" stroke-width="1.5" stroke-linecap="round" stroke-linejoin="round"/>
<path d="M6 9C7.65685 9 9 7.65685 9 6C9 4.34315 7.65685 3 6 3C4.34315 3 3 4.34315 3 6C3 7.65685 4.34315 9 6 9Z" stroke="#6B6B6B" stroke-width="1.5" stroke-linecap="round" stroke-linejoin="round"/>
<path d="M21.2871 13.719C21.7681 12.705 22.8031 12 24.0001 12H28.0001C29.6571 12 31.0001 13.343 31.0001 15V20H29.0001V27H23.0001" stroke="#6B6B6B" stroke-width="1.5" stroke-linecap="round" stroke-linejoin="round"/>
<path d="M26 9C27.6569 9 29 7.65685 29 6C29 4.34315 27.6569 3 26 3C24.3431 3 23 4.34315 23 6C23 7.65685 24.3431 9 26 9Z" stroke="#6B6B6B" stroke-width="1.5" stroke-linecap="round" stroke-linejoin="round"/>
<path d="M19 31H13V23H10V16C10 13.791 11.791 12 14 12H18C20.209 12 22 13.791 22 16V23H19V31Z" fill="url(#paint0_linear)" stroke="#6B6B6B" stroke-width="1.5" stroke-linecap="round" stroke-linejoin="round"/>
<path d="M16 9C18.2091 9 20 7.20914 20 5C20 2.79086 18.2091 1 16 1C13.7909 1 12 2.79086 12 5C12 7.20914 13.7909 9 16 9Z" stroke="#6B6B6B" stroke-width="1.5" stroke-linecap="round" stroke-linejoin="round"/>
<defs>
<linearGradient id="paint0_linear" x1="16" y1="12" x2="16" y2="31" gradientUnits="userSpaceOnUse">
<stop stop-color="#EE7C48"/>
<stop offset="1" stop-color="#EDAA52"/>
</linearGradient>
</defs>
</svg>
