<svg width="32" height="32" viewBox="0 0 32 32" fill="none" xmlns="http://www.w3.org/2000/svg">
<path d="M23 30L15.944 31L9 30V19L15.944 20L23 19V30Z" fill="url(#paint0_linear)" stroke="#6B6B6B" stroke-width="1.5" stroke-linecap="round" stroke-linejoin="round"/>
<path d="M15.9434 11C14.6173 11 13.3455 10.4732 12.4078 9.53553C11.4701 8.59785 10.9434 7.32608 10.9434 6V6C10.9434 4.67392 11.4701 3.40215 12.4078 2.46447C13.3455 1.52678 14.6173 1 15.9434 1V1C16.6 1 17.2501 1.12933 17.8568 1.3806C18.4634 1.63188 19.0146 2.00017 19.4789 2.46447C19.9432 2.92876 20.3115 3.47995 20.5628 4.08658C20.814 4.69321 20.9434 5.34339 20.9434 6V6C20.9434 7.32608 20.4166 8.59785 19.4789 9.53553C18.5412 10.4732 17.2694 11 15.9434 11V11Z" stroke="#6B6B6B" stroke-width="1.5" stroke-linecap="round" stroke-linejoin="round"/>
<path d="M12.9996 25L3.02462 27.494C2.8416 27.5397 2.64937 27.5328 2.47014 27.4739C2.29091 27.415 2.132 27.3066 2.01174 27.1613C1.89148 27.0159 1.8148 26.8395 1.79053 26.6524C1.76627 26.4654 1.79542 26.2752 1.87462 26.104L6.46362 16.162C6.62371 15.8151 6.87982 15.5213 7.20164 15.3154C7.52347 15.1094 7.89755 15 8.27962 15H23.7146C24.0979 14.9999 24.473 15.11 24.7955 15.3171C25.118 15.5241 25.3742 15.8195 25.5336 16.168L30.0786 26.107C30.157 26.2783 30.1854 26.4683 30.1606 26.6551C30.1357 26.8419 30.0586 27.0178 29.9381 27.1627C29.8176 27.3075 29.6586 27.4154 29.4795 27.4738C29.3004 27.5323 29.1084 27.5389 28.9256 27.493L18.9996 25" stroke="#6B6B6B" stroke-width="1.5" stroke-linecap="round" stroke-linejoin="round"/>
<defs>
<linearGradient id="paint0_linear" x1="16" y1="19" x2="16" y2="31" gradientUnits="userSpaceOnUse">
<stop stop-color="#EE7C48"/>
<stop offset="1" stop-color="#EDAA52"/>
</linearGradient>
</defs>
</svg>
