<svg width="32" height="32" viewBox="0 0 32 32" fill="none" xmlns="http://www.w3.org/2000/svg">
<path d="M11 24.484C9.39456 23.4113 8.17664 21.8508 7.52614 20.0328C6.87564 18.2149 6.82704 16.2359 7.38751 14.3882C7.94799 12.5405 9.08782 10.922 10.6387 9.77184C12.1895 8.62164 14.0692 8.00069 16 8.00069C17.9308 8.00069 19.8105 8.62164 21.3613 9.77184C22.9122 10.922 24.052 12.5405 24.6125 14.3882C25.173 16.2359 25.1244 18.2149 24.4739 20.0328C23.8234 21.8508 22.6054 23.4113 21 24.484" fill="url(#paint0_linear)"/>
<path d="M11 24.484C9.39456 23.4113 8.17664 21.8508 7.52614 20.0328C6.87564 18.2149 6.82704 16.2359 7.38751 14.3882C7.94799 12.5405 9.08782 10.922 10.6387 9.77184C12.1895 8.62164 14.0692 8.00069 16 8.00069C17.9308 8.00069 19.8105 8.62164 21.3613 9.77184C22.9122 10.922 24.052 12.5405 24.6125 14.3882C25.173 16.2359 25.1244 18.2149 24.4739 20.0328C23.8234 21.8508 22.6054 23.4113 21 24.484" stroke="#6B6B6B" stroke-width="1.5" stroke-linecap="round" stroke-linejoin="round"/>
<path d="M16 20C17.6569 20 19 18.6569 19 17C19 15.3431 17.6569 14 16 14C14.3431 14 13 15.3431 13 17C13 18.6569 14.3431 20 16 20Z" fill="white" stroke="#6B6B6B" stroke-width="1.5" stroke-linecap="round" stroke-linejoin="round"/>
<path d="M8 29.691C5.24909 27.9566 3.13635 25.3751 1.98011 22.3356C0.823867 19.296 0.686758 15.9631 1.58944 12.8388C2.49212 9.71457 4.38569 6.96831 6.98485 5.0138C9.58401 3.0593 12.748 2.00243 16 2.00243C19.252 2.00243 22.416 3.0593 25.0152 5.0138C27.6143 6.96831 29.5079 9.71457 30.4106 12.8388C31.3132 15.9631 31.1761 19.296 30.0199 22.3356C28.8637 25.3751 26.7509 27.9566 24 29.691" stroke="#6B6B6B" stroke-width="1.5" stroke-linecap="round" stroke-linejoin="round"/>
<defs>
<linearGradient id="paint0_linear" x1="16" y1="8.00069" x2="16" y2="24.484" gradientUnits="userSpaceOnUse">
<stop stop-color="#EE7C48"/>
<stop offset="1" stop-color="#EDAA52"/>
</linearGradient>
</defs>
</svg>
