<?xml version="1.0" standalone="no"?>
<!DOCTYPE svg PUBLIC "-//W3C//DTD SVG 20010904//EN"
 "http://www.w3.org/TR/2001/REC-SVG-20010904/DTD/svg10.dtd">
<svg version="1.0" xmlns="http://www.w3.org/2000/svg"
 width="700.000000pt" height="700.000000pt" viewBox="0 0 700.000000 700.000000"
 preserveAspectRatio="xMidYMid meet">
<metadata>
Created by potrace 1.11, written by Peter Selinger 2001-2013
</metadata>
<g transform="translate(0.000000,700.000000) scale(0.100000,-0.100000)"
fill="#000000" stroke="none">
<path d="M3227 6990 c-636 -57 -1220 -266 -1725 -617 -315 -219 -632 -533
-852 -843 -349 -493 -558 -1043 -632 -1665 -19 -164 -16 -596 6 -770 102 -816
453 -1528 1032 -2096 337 -330 723 -580 1159 -752 306 -120 570 -186 925 -229
136 -16 572 -16 715 0 691 79 1292 325 1830 750 141 111 428 397 536 532 367
463 603 969 713 1530 47 239 60 386 60 665 1 264 -8 379 -45 595 -103 608
-374 1192 -774 1665 -573 678 -1376 1112 -2260 1220 -152 19 -548 27 -688 15z
m549 -1315 c222 -29 420 -84 620 -172 107 -46 316 -163 321 -179 2 -5 -387
-473 -863 -1039 -477 -567 -880 -1048 -895 -1069 -67 -91 -58 -180 25 -258 28
-25 319 -270 646 -544 828 -693 949 -795 955 -804 9 -15 -235 -128 -380 -176
-268 -90 -477 -120 -773 -111 -205 5 -343 26 -524 77 -771 216 -1367 847
-1542 1630 -38 170 -50 286 -50 475 0 348 69 646 223 960 117 237 231 396 420
586 287 285 623 476 1010 574 95 23 258 52 336 58 116 10 366 5 471 -8z m1462
-833 c320 -421 486 -982 443 -1492 -46 -531 -255 -995 -621 -1373 -57 -60
-116 -117 -131 -127 l-26 -19 -769 645 c-423 354 -769 649 -769 654 0 5 371
449 824 986 l824 977 82 -84 c44 -46 109 -121 143 -167z"/>
<path d="M5005 3876 c-47 -20 -93 -79 -100 -128 -6 -37 -1 -58 32 -133 37 -88
38 -92 37 -215 0 -144 -12 -184 -91 -302 -55 -82 -66 -142 -38 -202 41 -86
151 -122 234 -75 71 40 169 203 213 356 30 105 32 322 4 428 -22 81 -61 178
-89 218 -39 58 -134 83 -202 53z"/>
</g>
</svg>
