<svg id="Layer_1" data-name="Layer 1" xmlns="http://www.w3.org/2000/svg" xmlns:xlink="http://www.w3.org/1999/xlink" viewBox="0 0 560 420"><defs><style>.cls-1,.cls-6,.cls-8{fill:none;}.cls-2{fill:#a2ecc2;}.cls-3{fill:#ffde83;}.cls-14,.cls-4{fill:#fff;}.cls-5{fill:#e4e4e4;}.cls-11,.cls-12,.cls-14,.cls-6,.cls-8{stroke:#3a3836;stroke-width:2px;}.cls-7{fill:url(#linear-gradient);}.cls-12,.cls-8{stroke-linecap:round;stroke-linejoin:round;}.cls-9{fill:#ff6c37;}.cls-10{fill:url(#linear-gradient-2);}.cls-11{fill:#ff8753;}.cls-11,.cls-14{stroke-miterlimit:10;}.cls-12{fill:#d1dafa;}.cls-13{clip-path:url(#clip-path);}.cls-15{clip-path:url(#clip-path-2);}.cls-16{fill:#3a3836;}</style><linearGradient id="linear-gradient" x1="281.25" y1="114.71" x2="305.63" y2="114.71" gradientUnits="userSpaceOnUse"><stop offset="0" stop-color="#ff6d37"/><stop offset="0.54" stop-color="#fa9139"/><stop offset="1" stop-color="#f7ac3b"/></linearGradient><linearGradient id="linear-gradient-2" x1="112.08" y1="267.29" x2="125.61" y2="267.29" xlink:href="#linear-gradient"/><clipPath id="clip-path"><rect class="cls-1" x="47.25" y="194.28" width="22" height="22"/></clipPath><clipPath id="clip-path-2"><rect class="cls-1" x="415.62" y="77.64" width="22" height="22"/></clipPath></defs><path class="cls-2" d="M506.77,314.21s-4.83-30.45,28.84-32.44C535.61,281.77,535.76,305.69,506.77,314.21Z"/><path class="cls-2" d="M500.52,307.84s-18.63-26.07-.87-52.14C499.65,255.7,519.58,278,500.52,307.84Z"/><path class="cls-2" d="M494.39,313.29s-23.51-3.66-19.21-35.34C475.18,278,500.52,287.58,494.39,313.29Z"/><rect class="cls-3" x="49.8" y="266.66" width="57.23" height="51.22"/><rect class="cls-3" x="113.22" y="59.02" width="104.24" height="87.16"/><path class="cls-4" d="M99.15,310.58l.22,8.86s.68,9.47,13.95,9.54c0,0-16.6,1.42-10.85,19a14.76,14.76,0,0,0,12.63,6.75h25.54v24s4.76,14.53,16.94,13.48,16.35-12.5,16.35-12.5l.59-24.95,10-.43.17,23.27s1.55,13.9,18.21,14.66c0,0,14-.19,15.51-17V310.08A21,21,0,0,0,208.89,298s.08-31.52-6.47-41.93l120.65-.33L327.84,363s-4.42,34.15,23.33,30.59c0,0,22.66.42,19.85-24.43V326.24l9.69,2.84,22,50.44s3.68,18.07,30,10.57c0,0,17.66-7,8.11-26.47L414,270.72l4.05-1.87v-8.08s11.06,14.29,14.75,27.51c0,0,6.9,16.72,24,6.72,0,0,11.24-8.71,3.72-22.06,0,0-15.13-40-36-56.52L426,199.19s.52-4-7.91-3.9a68.06,68.06,0,0,1-12.95-.85A50.43,50.43,0,0,0,403.74,146c-14.76-25.39-28.11-23.6-28.11-23.6v-32H151.07l0,47.31s-43.78-9-60.21,36.09c0,0-9.72,34.92,17.74,53.61l-1.4,3.37a21.24,21.24,0,0,0-1.61,8.1h0l-15.32.64s-9.46-1.59-8,23.35.49,40.73.49,40.73S84.66,311.49,99.15,310.58Z"/><rect class="cls-4" x="151.07" y="90.41" width="79.18" height="74.99"/><path class="cls-5" d="M330.79,227.59S365.21,240.14,390,213c0,0-25.71,22.58-58.18,4.21Z"/><path class="cls-5" d="M160.38,242.81s14.93-6.58,18.81-16l-3.93-1s-9.65,12.86-26.55,13.49c0,0,11.54-3.46,14.89,7.34Z"/><path class="cls-6" d="M69.14,359.28h72"/><rect class="cls-7" x="281.25" y="108.92" width="24.39" height="11.58"/><path class="cls-5" d="M246.24,390.09c0,3.69-31.91,6.69-71.28,6.69s-71.29-3-71.29-6.69c0-2.63,16.23-4.91,39.82-6,4.34-.2,4.75,7.72,9.53,7.6,1.1,0,9.35-.81,10.47-.83,2.3-.05,7.15-7.36,9.52-7.38s-.56-.08,2-.08c4.66,0,7.2,0,11.62.08,3.59.06,6.15,7.62,9.52,7.73,3,.11,9.35,0,12.14.12,1.42.07,5.91-7,7.26-6.9C236.08,385.6,246.24,387.67,246.24,390.09Z"/><path class="cls-8" d="M173.71,228.82a52,52,0,1,0-67.42-1.19l2.31,1.9"/><circle class="cls-9" cx="107.03" cy="131.89" r="7.37"/><circle class="cls-8" cx="107.03" cy="131.89" r="7.37"/><path class="cls-8" d="M189.32,204.59c-16.65-2-28.11-16-28.11-33.2,0-10.06,3.63-18.33,10.64-24.47"/><path class="cls-8" d="M188.82,268.43s-4.64,23.44-23.71,21.21"/><path class="cls-8" d="M189.34,288.55s-6.19,15.68-24.23,15.34"/><line class="cls-8" x1="111.15" y1="138.03" x2="114.58" y2="143.72"/><circle class="cls-8" cx="142.84" cy="197.51" r="7.77"/><rect class="cls-8" x="82.34" y="239.3" width="81.64" height="71.28" rx="10.09"/><path class="cls-8" d="M155.37,238.82s13.15-4.76,19.94-11.4"/><line class="cls-8" x1="125.81" y1="267.27" x2="162.91" y2="267.27"/><line class="cls-8" x1="82.83" y1="267.27" x2="111.24" y2="267.27"/><rect class="cls-10" x="112.08" y="260.33" width="13.53" height="13.92" rx="1.18"/><rect class="cls-8" x="112.08" y="260.33" width="13.53" height="13.92" rx="1.18"/><path class="cls-8" d="M105.61,238.89h0a8.42,8.42,0,0,1,8.42-8.42H130.9a8.42,8.42,0,0,1,8.42,8.42"/><path class="cls-8" d="M172.52,329.11H117c-9.84,0-17.82-2.48-17.82-12.32v-4.93"/><rect class="cls-8" x="100.94" y="329.05" width="92.28" height="25.69" rx="12.85"/><path class="cls-8" d="M184.57,354.31v20.94a17,17,0,0,0,17,16.94h0a16.94,16.94,0,0,0,16.94-16.94V313.86c0-12.95-10.49-17.95-23.43-17.95l-5.19-.18-1-27.3"/><path class="cls-8" d="M174.52,355.05v20.2a16.94,16.94,0,0,1-16.94,16.94h0a16.94,16.94,0,0,1-16.94-16.94l.45-19.81"/><line class="cls-8" x1="321.7" y1="256.03" x2="202.42" y2="256.03"/><polyline class="cls-8" points="151.07 137.22 151.07 90.41 375.63 90.41 375.63 122.42"/><path class="cls-8" d="M176.59,226.42s28.62-.41,32.3,71.54"/><polyline class="cls-8" points="280.25 108.92 304.63 108.92 304.63 120.5 280.25 120.5"/><rect class="cls-8" x="199.9" y="108.92" width="80.75" height="11.58"/><circle class="cls-11" cx="168.3" cy="112.73" r="6.21"/><circle class="cls-8" cx="167.7" cy="131.81" r="3.6"/><path class="cls-5" d="M293.6,386.66c0,4.07,39,7.37,87.11,7.37s87.1-3.3,87.1-7.37c0-2-11.45-2.59-27.1-4.82-1.71-.25-4.88,9.37-10.78,9.07-4-.21-8.68,1.38-18.27-1.11-4.51-1.17-7.78-10.73-9.92-10.78-8.37-.23-11.78.26-21,.26-4.48,0-5.94.29-10.23.23-2,0-4.15,8.77-7.84,10.17-2.63,1-8.3,4.35-15.2,4.17-5.77-.16-11.9-6.69-14.83-7.6-2-.63-1.08-5.63-3.31-5.52C304.67,382,293.6,384,293.6,386.66Z"/><path class="cls-8" d="M368.66,223.13c23.23-5,41.85-26.5,41.85-51.26a53,53,0,0,0-105.91,0c0,23.33,16.89,43.33,37.92,50.33C342.52,222.2,352.8,226.52,368.66,223.13Z"/><path class="cls-8" d="M371,327l-.47,50.4c-1.08,10.64-10.06,16.21-20.78,16.21h0c-10.86,0-19.91-5.75-20.81-16.55-2.65-31.45-7.21-98.84-5.89-165"/><path class="cls-8" d="M406.84,247.08l13.74,46.46,22,76.21c2.94,12.81-6.81,22.5-20,22.5h-1.5a20.52,20.52,0,0,1-19.35-13.68l-21.35-49-13.2-4.71"/><path class="cls-8" d="M331.81,217.22c-.55.17-.62,25.76-8.74,38.48"/><path class="cls-8" d="M409.08,204.12s-12,20.26-2,43.09"/><path class="cls-8" d="M393.77,210c-1.12,5.41-4.92,35.33,14.74,44.59"/><path class="cls-8" d="M425.85,214l.77-12a6.41,6.41,0,0,0-6.41-6.4l-15-.26"/><circle class="cls-8" cx="388.4" cy="173.81" r="7.92"/><path class="cls-8" d="M310,150.52c5.2-1.29,11.16-1.91,23.24-1,21,1.51,29.7,9.8,33.17,15.3,1.67,2.64,1.86,7.93,1.44,11-1.44,10.62-4.68,36.61-49.47,30.25"/><line class="cls-8" x1="358.42" y1="111.89" x2="358.21" y2="118.79"/><ellipse class="cls-9" cx="358.39" cy="104.03" rx="7.37" ry="7.4"/><ellipse class="cls-8" cx="358.39" cy="104.03" rx="7.37" ry="7.4"/><path class="cls-8" d="M403.74,199.93s38.71,18,58.51,78A15.7,15.7,0,0,1,450.41,298h0c-7.56,1.6-14.38-1.43-17.18-8.63-4.22-10.88-13.48-31.37-25.78-42"/><rect class="cls-8" x="369.59" y="235.01" width="13.53" height="13.92" rx="1.18" transform="translate(752.7 483.94) rotate(-180)"/><path class="cls-8" d="M418.08,260.77v5.9a4.05,4.05,0,0,1-4.05,4.05h0"/><path class="cls-8" d="M319.21,206.05a76.1,76.1,0,0,1-32.63-26.51,17.65,17.65,0,0,0-25.13-4h0a17,17,0,0,0-5.12,21.1c6.62,13.27,23.09,39,50.89,51.39.79.36,1.59.68,2.4,1a59.93,59.93,0,0,0,8.22,2.28l4.56,1"/><line class="cls-8" x1="186.28" y1="91.92" x2="186.28" y2="163.71"/><line class="cls-8" x1="200.31" y1="213.85" x2="250.45" y2="213.85"/><line class="cls-8" x1="200.31" y1="227.59" x2="250.45" y2="227.59"/><rect class="cls-12" x="199.9" y="137.22" width="79.56" height="6.5"/><rect class="cls-12" x="199.9" y="152.22" width="79.56" height="6.5"/><line class="cls-6" x1="218.46" y1="356.31" x2="327.44" y2="356.31"/><line class="cls-6" x1="62.02" y1="359.28" x2="46.37" y2="359.28"/><line class="cls-6" x1="437.12" y1="352.88" x2="482.67" y2="352.88"/><rect class="cls-3" x="426.62" y="131.89" width="57.23" height="51.22"/><g class="cls-13"><path class="cls-14" d="M60.54,203l7,2.28-7,2.29-2.29,7-2.28-7-7-2.29L56,203l2.28-7Z"/></g><g class="cls-15"><path class="cls-14" d="M428.9,86.36l7,2.28-7,2.29-2.28,7-2.28-7-7-2.29,7-2.28,2.28-7Z"/></g><path class="cls-16" d="M489.17,240.34l5,1.63-5,1.63-1.63,5-1.63-5-5-1.63,5-1.63,1.63-5Z"/><rect class="cls-16" x="202.89" y="256.15" width="120.43" height="5.29"/><polygon class="cls-16" points="381.53 124.51 376.62 123.51 376.62 98.1 381.53 98.1 381.53 124.51"/><rect class="cls-6" x="483.86" y="324.28" width="33.33" height="63.04"/><line class="cls-6" x1="500.71" y1="324.28" x2="500.71" y2="278.85"/><path class="cls-6" d="M505.32,324.28s1.35-21.89,16.74-30.49"/><path class="cls-6" d="M496.15,324.28s0-16.44-11.24-28"/><line class="cls-6" x1="483.86" y1="371.86" x2="517.18" y2="371.86"/></svg>