<svg width="260" height="260" viewBox="0 0 260 260" fill="none" xmlns="http://www.w3.org/2000/svg">
<path d="M146.558 1.05893C121.055 -2.21607 95.154 2.14515 72.1299 13.5911C49.1058 25.037 29.9929 43.0535 17.2084 65.3622C4.42395 87.6708 -1.45797 113.27 0.306538 138.921C2.07104 164.573 11.4027 189.125 27.1214 209.473C42.8402 229.821 64.2399 245.051 88.6144 253.237C112.989 261.422 139.243 262.196 164.058 255.459C188.872 248.723 211.131 234.78 228.02 215.393C244.91 196.005 255.671 172.045 258.943 146.542C263.33 112.347 253.954 77.8096 232.878 50.5268C211.802 23.244 180.752 5.45009 146.558 1.05893V1.05893Z" fill="#FF6C37"/>
<path d="M122.96 48.9173C110.841 49.99 99.1173 53.7637 88.651 59.9606C78.1848 66.1574 69.2429 74.6195 62.4837 84.7239C55.7244 94.8283 51.32 106.318 49.5948 118.346C47.8695 130.375 48.8673 142.636 52.5147 154.227C56.1621 165.818 62.3662 176.444 70.6702 185.322C78.9742 194.2 89.1667 201.105 100.497 205.528C111.828 209.951 124.008 211.779 136.14 210.877C148.273 209.976 160.049 206.369 170.602 200.321L110.671 150.097C109.983 149.522 109.415 148.817 109.001 148.022C108.586 147.228 108.332 146.359 108.254 145.467C108.176 144.574 108.275 143.675 108.545 142.821C108.816 141.966 109.252 141.174 109.83 140.488L175.562 62.3121C160.082 51.9631 141.514 47.2348 122.96 48.9173V48.9173Z" fill="white"/>
<path d="M186.27 70.7837L124.637 143.842L182.204 192.085C185.865 189.008 189.234 185.6 192.268 181.905C205.502 166.046 212.239 145.775 211.126 125.163C210.014 104.551 201.134 85.1238 186.27 70.7837V70.7837Z" fill="white"/>
<path d="M194.416 119.827C194.136 118.969 193.675 118.181 193.065 117.516C192.455 116.851 191.71 116.324 190.879 115.97C190.048 115.617 189.151 115.445 188.249 115.466C187.346 115.487 186.458 115.701 185.645 116.094C184.831 116.486 184.112 117.048 183.534 117.741C182.956 118.434 182.533 119.242 182.294 120.112C182.055 120.982 182.005 121.893 182.148 122.784C182.291 123.674 182.622 124.524 183.121 125.276C184.751 128.553 185.397 132.232 184.981 135.867C184.564 139.503 183.104 142.941 180.775 145.766C180.009 146.689 179.522 147.81 179.371 148.998C179.219 150.187 179.408 151.394 179.917 152.48C180.426 153.565 181.234 154.483 182.245 155.128C183.257 155.772 184.431 156.116 185.631 156.119C186.558 156.109 187.471 155.9 188.309 155.505C189.147 155.11 189.89 154.539 190.487 153.831C194.348 149.141 196.773 143.439 197.47 137.407C198.166 131.376 197.106 125.271 194.416 119.827V119.827Z" fill="#FF6C37"/>
</svg>
