<svg width="360" height="134" viewBox="0 0 360 134" fill="none" xmlns="http://www.w3.org/2000/svg">
<path d="M157.184 80.6885V52.7248C157.183 52.5617 157.217 52.4004 157.284 52.2522C157.352 52.104 157.45 51.9726 157.572 51.8672C157.851 51.6268 158.208 51.5014 158.574 51.5155H166.312C168.604 51.4022 170.854 52.1735 172.611 53.6751C174.189 55.1189 174.978 57.3937 174.978 60.4994V60.8758C174.978 63.9856 174.169 66.2665 172.551 67.7186C170.76 69.2347 168.476 70.014 166.148 69.9029H160.625V80.6885C160.63 80.8734 160.585 81.0562 160.495 81.2171C160.405 81.378 160.274 81.5109 160.115 81.6017C159.747 81.822 159.328 81.9382 158.901 81.9382C158.474 81.9382 158.055 81.822 157.687 81.6017C157.529 81.5112 157.398 81.3781 157.31 81.217C157.221 81.0559 157.177 80.873 157.184 80.6885ZM160.619 66.9967H166.172C166.902 67.0424 167.634 66.9345 168.321 66.6797C169.008 66.4249 169.636 66.0286 170.165 65.5158C171.192 64.2888 171.699 62.6978 171.574 61.0917V60.5796C171.699 58.9735 171.192 57.3825 170.165 56.1555C169.636 55.6435 169.007 55.2482 168.32 54.9944C167.633 54.7407 166.902 54.6339 166.172 54.6808H160.649L160.619 66.9967Z" fill="#FF6C37"/>
<path d="M186.995 73.1114V60.5796C186.995 57.4533 187.794 55.16 189.392 53.6997C191.243 52.2855 193.495 51.5209 195.81 51.5209C198.126 51.5209 200.378 52.2855 202.228 53.6997C203.847 55.1559 204.656 57.4492 204.656 60.5796V73.1114C204.656 76.2459 203.847 78.5412 202.228 79.9974C200.38 81.4237 198.122 82.1958 195.801 82.1958C193.48 82.1958 191.223 81.4237 189.374 79.9974C187.784 78.5351 186.995 76.2582 186.995 73.1114ZM190.442 73.1114C190.442 77.0521 192.227 79.0225 195.795 79.0225C196.525 79.0724 197.257 78.9671 197.945 78.7132C198.633 78.4593 199.26 78.0624 199.789 77.5478C200.811 76.3131 201.316 74.7205 201.197 73.1114V60.5796C201.26 59.7842 201.168 58.984 200.927 58.2248C200.685 57.4656 200.298 56.7623 199.789 56.1555C199.259 55.6435 198.631 55.2482 197.943 54.9944C197.256 54.7407 196.525 54.6339 195.795 54.6808C192.223 54.6808 190.438 56.6471 190.442 60.5796V73.1114Z" fill="#FF6C37"/>
<path d="M216.819 77.6527C216.829 77.182 216.994 76.7284 217.286 76.3631C217.396 76.19 217.543 76.0445 217.717 75.9376C217.89 75.8308 218.085 75.7653 218.287 75.7461C218.65 75.8095 218.981 75.9941 219.228 76.2706C219.604 76.6161 220.005 77.0048 220.411 77.4306C220.969 77.9565 221.631 78.3542 222.354 78.5967C223.309 78.9624 224.325 79.1383 225.346 79.115C226.839 79.2068 228.315 78.7491 229.503 77.8255C230.026 77.3426 230.435 76.7451 230.698 76.0781C230.961 75.411 231.071 74.6919 231.02 73.9752C231.046 73.2953 230.937 72.617 230.699 71.981C230.461 71.3449 230.1 70.764 229.636 70.2731C228.686 69.3071 227.541 68.5619 226.28 68.0888C224.963 67.5952 223.652 67.0769 222.281 66.4845C220.957 65.9153 219.797 65.0154 218.906 63.8683C217.942 62.5558 217.451 60.9456 217.517 59.3085C217.491 57.9916 217.772 56.6872 218.336 55.5014C218.815 54.4796 219.576 53.6219 220.527 53.0333C221.413 52.4868 222.372 52.0712 223.373 51.7993C224.402 51.5441 225.458 51.4197 226.517 51.4291C228.163 51.4185 229.801 51.6683 231.372 52.1695C232.914 52.6755 233.691 53.3665 233.691 54.1995C233.668 54.6418 233.525 55.0689 233.278 55.4336C233.177 55.6341 233.024 55.8027 232.836 55.9213C232.648 56.0398 232.431 56.1038 232.21 56.1061C231.587 55.9027 230.978 55.6553 230.389 55.3657C229.192 54.8238 227.894 54.5522 226.584 54.5697C225.175 54.5122 223.781 54.8746 222.572 55.6125C222.063 55.9803 221.657 56.4761 221.393 57.0516C221.129 57.627 221.017 58.2623 221.067 58.8951C221.036 59.4872 221.142 60.0783 221.376 60.6215C221.61 61.1646 221.966 61.6446 222.414 62.0234C223.416 62.8567 224.56 63.4966 225.789 63.9115C227.118 64.3866 228.435 64.9296 229.782 65.5343C231.13 66.1972 232.281 67.2104 233.12 68.4713C234.098 69.9961 234.583 71.7927 234.51 73.6112C234.51 76.4742 233.691 78.6276 232.052 80.09C230.227 81.6126 227.91 82.3911 225.552 82.2742C223.399 82.3433 221.269 81.8051 219.398 80.7193C217.638 79.6765 216.819 78.6585 216.819 77.6527Z" fill="#FF6C37"/>
<path d="M244.736 53.058C244.727 52.6714 244.842 52.2923 245.064 51.9782C245.159 51.8264 245.293 51.7033 245.451 51.6219C245.609 51.5405 245.785 51.5038 245.962 51.5154H262.622C262.798 51.5031 262.975 51.5396 263.133 51.621C263.292 51.7025 263.425 51.8259 263.52 51.9782C263.739 52.2939 263.856 52.6715 263.854 53.058C263.86 53.4624 263.744 53.8589 263.52 54.1933C263.428 54.3497 263.295 54.4777 263.137 54.5636C262.979 54.6494 262.801 54.6899 262.622 54.6808H256.061V80.6885C256.067 80.8736 256.023 81.0569 255.933 81.2181C255.843 81.3792 255.711 81.512 255.551 81.6017C255.183 81.822 254.764 81.9382 254.337 81.9382C253.91 81.9382 253.491 81.822 253.124 81.6017C252.965 81.5109 252.834 81.3779 252.744 81.217C252.654 81.0561 252.609 80.8734 252.614 80.6885V54.6808H245.992C245.815 54.6925 245.638 54.6551 245.48 54.5725C245.321 54.4899 245.188 54.3653 245.094 54.2119C244.857 53.8758 244.732 53.4716 244.736 53.058V53.058Z" fill="#FF6C37"/>
<path d="M275.5 80.6885V53.2678C275.435 52.8728 275.526 52.4676 275.753 52.1405C275.981 51.8135 276.326 51.591 276.714 51.5216C276.893 51.4908 277.075 51.4908 277.254 51.5216C278.34 51.5216 279.251 52.2559 280.003 53.7244L286.424 66.2562L292.894 53.7244C293.703 52.2559 294.616 51.5216 295.631 51.5216C296.018 51.4589 296.413 51.5531 296.732 51.7839C297.051 52.0147 297.268 52.3637 297.337 52.7557V52.7557C297.361 52.9007 297.361 53.0488 297.337 53.1938V80.6083C297.34 80.793 297.294 80.9752 297.205 81.1358C297.115 81.2965 296.984 81.4297 296.827 81.5215C296.46 81.7437 296.04 81.861 295.613 81.861C295.186 81.861 294.766 81.7437 294.399 81.5215C294.241 81.4297 294.111 81.2965 294.021 81.1358C293.932 80.9752 293.886 80.793 293.889 80.6083V58.8334L287.711 70.6556C287.614 70.9433 287.433 71.1942 287.192 71.3749C286.952 71.5557 286.663 71.6577 286.364 71.6675C286.077 71.6487 285.802 71.5419 285.575 71.3613C285.349 71.1807 285.182 70.9347 285.095 70.6556L278.935 58.6298V80.6885C278.94 80.8734 278.895 81.0562 278.805 81.2171C278.715 81.3779 278.584 81.5109 278.425 81.6017C278.078 81.8425 277.669 81.9753 277.249 81.9841C276.829 81.9929 276.415 81.8771 276.058 81.651C275.882 81.5647 275.735 81.4272 275.636 81.2559C275.536 81.0845 275.489 80.8871 275.5 80.6885V80.6885Z" fill="#FF6C37"/>
<path d="M309.111 80.4972C309.115 80.38 309.142 80.2648 309.19 80.1579L317.565 52.7434C317.802 51.9412 318.493 51.5093 319.647 51.5093C320.8 51.5093 321.498 51.9166 321.734 52.7434L330.14 80.2936C330.134 80.3428 330.134 80.3925 330.14 80.4417C330.152 80.4819 330.152 80.5249 330.14 80.5651C330.13 80.7805 330.063 80.9892 329.945 81.1686C329.828 81.348 329.664 81.4913 329.472 81.5832C329.022 81.8623 328.501 82.0017 327.973 81.9843C327.714 82.0178 327.451 81.9586 327.229 81.8168C327.008 81.675 326.842 81.4594 326.759 81.2068L324.939 75.1106H314.221L312.4 81.2068C312.319 81.4696 312.149 81.6946 311.92 81.8416C311.691 81.9885 311.418 82.0479 311.15 82.0089C310.658 82.0076 310.178 81.8619 309.766 81.5894C309.565 81.4902 309.397 81.3346 309.281 81.141C309.165 80.9474 309.106 80.724 309.111 80.4972ZM315.052 72.155H324.241L319.628 56.5998L315.052 72.155Z" fill="#FF6C37"/>
<path d="M342.017 80.6885V52.7248C342.017 51.9227 342.588 51.4908 343.735 51.4908C344.268 51.479 344.787 51.663 345.197 52.0091C345.682 52.4923 346.073 53.0637 346.35 53.6936L356.553 73.9999V52.7002C356.55 52.5181 356.596 52.3387 356.686 52.1811C356.775 52.0235 356.906 51.8937 357.062 51.8055C357.435 51.5997 357.852 51.4919 358.276 51.4919C358.7 51.4919 359.117 51.5997 359.49 51.8055C359.645 51.8957 359.774 52.026 359.863 52.1831C359.953 52.3402 360 52.5186 360 52.7002V80.6885C360.004 80.8734 359.959 81.0562 359.87 81.2171C359.78 81.378 359.649 81.5109 359.49 81.6017C359.127 81.834 358.704 81.9501 358.276 81.9349C357.802 81.9148 357.344 81.7538 356.959 81.472C356.574 81.1902 356.279 80.7998 356.11 80.3491L345.483 59.4258V80.6885C345.489 80.8737 345.444 81.057 345.354 81.2181C345.264 81.3792 345.132 81.512 344.973 81.6017C344.605 81.822 344.186 81.9382 343.759 81.9382C343.332 81.9382 342.913 81.822 342.545 81.6017C342.384 81.5123 342.25 81.3802 342.157 81.2194C342.064 81.0585 342.016 80.875 342.017 80.6885V80.6885Z" fill="#FF6C37"/>
<path d="M74.3111 0.544595C61.3801 -1.13969 48.2471 1.10322 36.5729 6.98969C24.8987 12.8762 15.2077 22.1418 8.72541 33.6148C2.24313 45.0879 -0.73925 58.253 0.155428 71.4452C1.05011 84.6375 5.78165 97.2644 13.7517 107.729C21.7218 118.194 32.5723 126.026 44.9312 130.236C57.2901 134.446 70.6023 134.843 83.1841 131.379C95.7659 127.915 107.052 120.744 115.616 110.773C124.18 100.803 129.636 88.4804 131.295 75.3644C133.519 57.7784 128.765 40.0164 118.079 25.9852C107.393 11.9541 91.6491 2.80291 74.3111 0.544595V0.544595Z" fill="#FF6C37"/>
<path d="M47.655 71.0825C47.6805 71.1354 47.7234 71.1777 47.7763 71.2021C47.8293 71.2265 47.8889 71.2315 47.945 71.2162L58.4915 68.9096L54.0554 64.35L47.7341 70.7616C47.6842 70.7957 47.6485 70.8474 47.6339 70.9066C47.6193 70.9659 47.6268 71.0285 47.655 71.0825Z" fill="white"/>
<path d="M97.0388 25.1517C95.569 25.1532 94.1183 25.4891 92.7935 26.1345C91.4686 26.78 90.3034 27.7186 89.3835 28.8813C88.4637 30.044 87.8127 31.4012 87.4784 32.8529C87.1441 34.3045 87.1351 35.8138 87.452 37.2695C87.7689 38.7252 88.4037 40.0902 89.3096 41.2641C90.2155 42.438 91.3694 43.3909 92.6864 44.0526C94.0035 44.7143 95.45 45.068 96.9196 45.0876C98.3893 45.1072 99.8445 44.7922 101.178 44.1658L94.4944 37.3865C94.4177 37.3089 94.3568 37.2167 94.3153 37.1151C94.2737 37.0136 94.2524 36.9048 94.2524 36.7948C94.2524 36.6849 94.2737 36.5761 94.3153 36.4745C94.3568 36.373 94.4177 36.2808 94.4944 36.2032L103.228 27.3513C101.474 25.9209 99.2894 25.1444 97.0388 25.1517V25.1517Z" fill="white"/>
<path d="M104.428 28.5012L96.2411 36.7714L102.661 43.2833C103.134 42.9464 103.576 42.5659 103.98 42.1467C105.739 40.3499 106.763 37.9444 106.847 35.4133C106.93 32.8821 106.066 30.4128 104.428 28.5012V28.5012Z" fill="white"/>
<path d="M88.0479 43.7647H87.9029C87.7326 43.7633 87.5626 43.779 87.3953 43.8115H87.336C87.1523 43.8517 86.9716 43.9053 86.7955 43.9719L86.6571 44.0388C86.5245 44.095 86.3966 44.162 86.2748 44.2393L86.1298 44.3329C85.9702 44.4446 85.8202 44.5699 85.6815 44.7074L61.4049 69.3375L64.4106 72.3862L90.1176 49.501C90.2629 49.3718 90.3953 49.2284 90.5131 49.0731L90.6252 48.926C90.713 48.7955 90.7922 48.6593 90.8625 48.5182C90.902 48.438 90.935 48.3577 90.9679 48.2775C91.0122 48.1709 91.0497 48.0615 91.08 47.9499C91.08 47.8697 91.1261 47.7895 91.1459 47.7092C91.1784 47.5437 91.2005 47.3762 91.2118 47.2078V46.9872C91.2118 46.8668 91.2118 46.7465 91.2118 46.6261C91.2118 46.5058 91.2118 46.4657 91.1789 46.3855C91.057 45.7545 90.7533 45.1744 90.3063 44.7186C89.8592 44.2628 89.2889 43.9518 88.6675 43.8248H88.5423C88.3791 43.793 88.2139 43.7729 88.0479 43.7647Z" fill="white"/>
<path d="M55.1891 63.1666L60.1723 68.1943L84.5148 43.5039C85.3069 42.7185 86.3392 42.2304 87.4415 42.12C83.1372 38.7771 78.444 39.653 55.1891 63.1666Z" fill="white"/>
<path d="M91.4886 50.4637L91.192 50.7579L65.485 73.6364L69.8552 78.0623C80.6917 67.6661 90.3087 57.7645 91.4886 50.4637Z" fill="white"/>
<path d="M27.3662 104.063C27.3796 104.11 27.407 104.153 27.4447 104.184C27.4825 104.215 27.5287 104.233 27.5772 104.237L38.7828 105.019L32.501 98.6476L27.419 103.796C27.386 103.831 27.3636 103.874 27.3542 103.922C27.3449 103.969 27.3491 104.018 27.3662 104.063V104.063Z" fill="white"/>
<path d="M33.6742 97.4643L40.2987 104.183C40.3773 104.269 40.4825 104.324 40.5966 104.34C40.7106 104.356 40.8265 104.331 40.9249 104.27C41.0276 104.219 41.1094 104.132 41.1563 104.026C41.2032 103.92 41.2122 103.801 41.182 103.689L40.068 98.8616C39.9958 98.5487 40.0286 98.2204 40.1611 97.9286C40.2937 97.6368 40.5183 97.3981 40.7996 97.2504C52.4139 91.3469 61.7805 85.2695 68.6555 79.1989L64.0414 74.5189L54.1541 76.6784L33.6742 97.4643Z" fill="white"/>
<path d="M62.6242 73.1016L60.1458 70.5878L56.7182 74.0577C56.6936 74.0877 56.6801 74.1256 56.6801 74.1646C56.6801 74.2037 56.6936 74.2416 56.7182 74.2716C56.7342 74.3072 56.7624 74.3358 56.7976 74.3518C56.8328 74.3678 56.8725 74.3702 56.9094 74.3585L62.6242 73.1016Z" fill="white"/>
<path d="M104.659 33.8899C104.625 33.7847 104.569 33.688 104.495 33.6064C104.422 33.5248 104.332 33.4601 104.231 33.4167C104.131 33.3733 104.023 33.3523 103.913 33.3549C103.804 33.3575 103.697 33.3837 103.599 33.4319C103.501 33.48 103.414 33.5489 103.344 33.6339C103.274 33.719 103.223 33.8182 103.194 33.9249C103.165 34.0316 103.159 34.1434 103.176 34.2527C103.194 34.3619 103.234 34.4662 103.294 34.5585C103.491 34.9605 103.569 35.4118 103.519 35.8579C103.468 36.3039 103.292 36.7257 103.011 37.0723C102.918 37.1855 102.859 37.3231 102.841 37.4689C102.823 37.6147 102.846 37.7629 102.907 37.896C102.969 38.0292 103.066 38.1418 103.188 38.2209C103.31 38.3 103.452 38.3422 103.597 38.3426C103.709 38.3413 103.82 38.3156 103.921 38.2672C104.022 38.2187 104.112 38.1486 104.184 38.0618C104.65 37.4864 104.943 36.7868 105.027 36.0468C105.112 35.3068 104.984 34.5579 104.659 33.8899V33.8899Z" fill="#FF6C37"/>
</svg>
