<svg xmlns="http://www.w3.org/2000/svg" xmlns:xlink="http://www.w3.org/1999/xlink" viewBox="0 0 560 420"><defs><style>.cls-1,.cls-19,.cls-8{fill:none;}.cls-2{isolation:isolate;}.cls-3,.cls-6{fill:#e5e5e5;}.cls-3{mix-blend-mode:multiply;}.cls-4{fill:#ffde83;}.cls-13,.cls-15,.cls-5{fill:#fff;}.cls-11,.cls-7,.cls-9{opacity:0.7;}.cls-7{fill:url(#linear-gradient);}.cls-12,.cls-13,.cls-15,.cls-19,.cls-8{stroke:#3a3836;stroke-width:2px;}.cls-12,.cls-8{stroke-linecap:round;stroke-linejoin:round;}.cls-10{fill:#ff6c37;}.cls-11{fill:url(#linear-gradient-2);}.cls-12{fill:#d1dafa;}.cls-14{clip-path:url(#clip-path);}.cls-15{stroke-miterlimit:10;}.cls-16{fill:#3a3836;}.cls-17{clip-path:url(#clip-path-2);}.cls-18{fill:#a2ecc2;}</style><linearGradient id="linear-gradient" x1="155.53" y1="221.2" x2="207.04" y2="221.2" gradientUnits="userSpaceOnUse"><stop offset="0" stop-color="#ff7002"/><stop offset="0.3" stop-color="#fe7304"/><stop offset="0.5" stop-color="#fc7c0a"/><stop offset="0.68" stop-color="#f88b15"/><stop offset="0.84" stop-color="#f3a125"/><stop offset="0.98" stop-color="#ecbd39"/><stop offset="1" stop-color="#ebc03b"/></linearGradient><linearGradient id="linear-gradient-2" x1="343.68" y1="239.2" x2="362.36" y2="239.2" xlink:href="#linear-gradient"/><clipPath id="clip-path"><rect class="cls-1" x="156.57" y="107.18" width="22" height="22"/></clipPath><clipPath id="clip-path-2"><rect class="cls-1" x="431" y="182.77" width="22" height="22"/></clipPath></defs><g class="cls-2"><g id="Layer_1" data-name="Layer 1"><rect class="cls-3" x="245.69" y="366.66" width="146.45" height="21.98" rx="10.99"/><polygon class="cls-4" points="195.12 203.83 132.1 203.83 100.59 258.4 132.1 312.98 195.12 312.98 226.63 258.4 195.12 203.83"/><path class="cls-5" d="M396,206.12l-43-.56-.71-25.21L346.93,175H335.74c10.36-21.78,3.28-39.76,3.28-39.76-7.7-24-26.83-31.53-26.83-31.53-32.34-14.9-55.3,4.82-55.3,4.82l-11.6,11.88c-24.35,34.81,3.7,66,3.7,66-13.65,19.86-42,28.14-42,28.14V199h-6.57c2-28.14-19.49-26.58-19.49-26.58-23.76,3.2-19.49,25.27-19.49,25.27l-6,1.31v44.35l19.57,1.13c6,25.24,35.66,14.5,45.8,11.39s24.39-13.37,24.39-13.37-1.63,65.8-2.73,102.86,14.33,36.26,14.33,36.26c24,4,26.09-16.69,26.09-16.69l3.49-55,14.16-.05,11.56,57.76,3.27,7.12s11,13.25,24.2,6.34,11.81-20.67,11.81-20.67l-11.81-76.88v-6.65c17.92,15.22,31.86,0,31.86,0l.58-2.27H396l1.62-3.08V208.41Zm-204.78-7.8L170.76,198v-7A10.17,10.17,0,0,1,181,180.83h0a10.16,10.16,0,0,1,10.22,10.11Z"/><path class="cls-6" d="M273.76,202s27.76,11.38,53.51-2.09l-2.51-10.24S306.14,208.78,273.76,202Z"/><rect class="cls-3" x="434.74" y="366.66" width="70.65" height="21.98" rx="10.99"/><polygon class="cls-4" points="416.33 72 372.67 72 350.83 109.81 372.67 147.63 416.33 147.63 438.17 109.81 416.33 72"/><polyline class="cls-3" points="304.75 273.01 291.8 258.51 304.84 258.51"/><path class="cls-7" d="M155.53,199v44.35H207V199Zm29.08,23.71.37,9.79h-8.31l.19-10a7,7,0,1,1,7.75.18Z"/><path class="cls-8" d="M236.57,140.43a47.81,47.81,0,0,0-1,14.35,53,53,0,1,0,13.85-39.53S240.24,124.3,236.57,140.43Z"/><path class="cls-8" d="M252.08,189.49c40.37,2.51,45.78-22.85,46.47-33.55.21-3.12-.34-8.38-2.19-10.91-3.85-5.24-13.08-12.92-34.18-13-12,0-15.05,0-21.83.22"/><line class="cls-8" x1="298.63" y1="93.01" x2="297.14" y2="98.66"/><g class="cls-9"><circle class="cls-10" cx="300.35" cy="83.82" r="7.51"/></g><circle class="cls-8" cx="300.05" cy="84.99" r="7.51"/><path class="cls-8" d="M338.76,274.86a294.57,294.57,0,0,0,4.31,30.28L351.24,359a19.49,19.49,0,0,1-.08,8.19A20.75,20.75,0,0,1,331.48,383h0c-11.24.27-16.07-5.29-20-17.59L300.34,310H283.09"/><path class="cls-8" d="M286.47,310,283,365a20.3,20.3,0,0,1-19.68,17.58h0a20.3,20.3,0,0,1-20.73-20.72L244.46,269c-.15-6.34.59-19.46,1.38-31.3a154.73,154.73,0,0,1,9.87-44.9h0"/><path class="cls-8" d="M175.1,244.51c3.21,8.72,6.7,15.72,20.31,16.08,16.46.44,32.85-6.16,49.88-18.06,0,0-6.1-31.59,0-49.77"/><path class="cls-8" d="M249,188.43c-4.9,7.43-21.33,18.57-40.64,26.17"/><path class="cls-8" d="M161.49,197.72v-5.78A19.5,19.5,0,0,1,181,172.45h0a19.49,19.49,0,0,1,19.49,19.49V198"/><path class="cls-8" d="M170.76,198v-7A10.17,10.17,0,0,1,181,180.83h0a10.16,10.16,0,0,1,10.22,10.11v7.38"/><rect class="cls-8" x="155.53" y="199.03" width="51.51" height="44.35"/><path class="cls-8" d="M188.46,217.58a7.05,7.05,0,1,0-11.07,5.79l-.19,10h8.32l-.37-9.8A7,7,0,0,0,188.46,217.58Z"/><circle class="cls-8" cx="322.99" cy="156.28" r="7.53"/><path class="cls-8" d="M339.13,274.63H307.9a3.12,3.12,0,0,1-3.15-3.08V209.19a3.11,3.11,0,0,1,3.15-3.07h86.55a3.11,3.11,0,0,1,3.15,3.07v62.36a3.12,3.12,0,0,1-3.15,3.08H372.1"/><path class="cls-8" d="M327.27,187.34A96.82,96.82,0,0,1,346.93,205"/><path class="cls-8" d="M371.67,276.59c0-9.06-6.54-16.07-15.6-16.07a16.41,16.41,0,0,0-16.41,16.4l.43.21c8.49,7.19,18.57,10.32,31.43-.23Z"/><circle class="cls-11" cx="353.02" cy="239.2" r="9.34"/><circle class="cls-12" cx="353.02" cy="239.2" r="9.34"/><polyline class="cls-8" points="304.75 273.01 291.8 258.51 304.84 258.51"/><path class="cls-8" d="M324.76,189.7s4.24,10,2.51,15.33"/><path class="cls-8" d="M335.72,193.77s.48,8.06-3,12.35"/><path class="cls-8" d="M337.1,175.24h7.41a8.51,8.51,0,0,1,8.51,8.51V205"/><line class="cls-8" x1="352.15" y1="367.66" x2="426.71" y2="367.66"/><line class="cls-8" x1="126.55" y1="367.66" x2="242.66" y2="367.66"/><line class="cls-8" x1="426.71" y1="367.66" x2="501.75" y2="367.66"/><line class="cls-8" x1="112.08" y1="367.67" x2="74.5" y2="367.67"/><polygon class="cls-13" points="471.3 375.19 437.97 375.19 427.97 332.15 481.3 332.15 471.3 375.19"/><g class="cls-14"><path class="cls-15" d="M169.85,115.9l7,2.28-7,2.29-2.28,7-2.28-7-7-2.29,7-2.28,2.28-7Z"/></g><path class="cls-16" d="M92.93,188l5,1.63-5,1.63-1.63,5-1.63-5-5-1.63,5-1.63,1.63-5Z"/><g class="cls-17"><path class="cls-15" d="M444.28,191.48l7,2.29-7,2.28-2.28,7-2.28-7-7-2.28,7-2.29,2.28-7Z"/></g><ellipse class="cls-18" cx="454.38" cy="289.71" rx="13.33" ry="8.5"/><ellipse class="cls-18" cx="494.63" cy="320.29" rx="13.33" ry="8.5"/><ellipse class="cls-18" cx="404.67" cy="322.56" rx="13.33" ry="8.5"/><ellipse class="cls-18" cx="414.64" cy="294.81" rx="13.33" ry="8.5"/><ellipse class="cls-18" cx="492.06" cy="294.81" rx="13.33" ry="8.5"/><path class="cls-19" d="M454.38,289.71l-1.25,42.44C451.67,316.8,444,311.8,444,311.8"/><path class="cls-19" d="M488.22,298.2c-26.52,10.43-32.37,33.95-32.37,33.95s9.6-11.91,32.37-11.86"/><path class="cls-19" d="M449.16,332.15c-7.39-27.1-32.09-36.18-32.09-36.18"/><ellipse class="cls-18" cx="441.3" cy="311.8" rx="13.33" ry="8.5"/><path class="cls-19" d="M412.83,320.29s24.23-2.92,35.69,11.86"/><line class="cls-13" x1="430.03" y1="343.01" x2="478.72" y2="343.01"/><rect class="cls-3" x="161.49" y="194.75" width="9.27" height="3.2"/><rect class="cls-3" x="191.2" y="194.75" width="9.27" height="3.2"/></g></g></svg>