<svg xmlns="http://www.w3.org/2000/svg" xmlns:xlink="http://www.w3.org/1999/xlink" viewBox="0 0 560 420"><defs><style>.cls-1,.cls-5,.cls-8{fill:none;}.cls-2{isolation:isolate;}.cls-3{fill:#ffde83;}.cls-4{fill:#d1dafa;}.cls-10,.cls-11,.cls-18,.cls-19,.cls-4,.cls-5,.cls-8,.cls-9{stroke:#3a3836;stroke-width:2px;}.cls-10,.cls-11,.cls-4,.cls-8,.cls-9{stroke-miterlimit:10;}.cls-18,.cls-19,.cls-5{stroke-linecap:round;stroke-linejoin:round;}.cls-6,.cls-9{fill:#e5e5e5;}.cls-6{mix-blend-mode:multiply;}.cls-10,.cls-18,.cls-7{fill:#fff;}.cls-11{fill:#fd8753;}.cls-12{fill:url(#linear-gradient);}.cls-13{fill:url(#linear-gradient-2);}.cls-14,.cls-21{fill:#3a3836;}.cls-15{opacity:0.7;fill:url(#linear-gradient-3);}.cls-16{fill:url(#linear-gradient-4);}.cls-17{fill:#a2ecc2;}.cls-19{fill:#fa9739;}.cls-20{clip-path:url(#clip-path);}.cls-21{font-size:13.89px;font-family:MyriadPro-Regular, Myriad Pro;}</style><linearGradient id="linear-gradient" x1="124.31" y1="132.33" x2="137.64" y2="132.33" gradientUnits="userSpaceOnUse"><stop offset="0" stop-color="#ff6d37"/><stop offset="0.54" stop-color="#fa9139"/><stop offset="1" stop-color="#f7ac3b"/></linearGradient><linearGradient id="linear-gradient-2" x1="124.31" y1="86" x2="137.64" y2="86" xlink:href="#linear-gradient"/><linearGradient id="linear-gradient-3" x1="375.5" y1="368.05" x2="394.67" y2="368.05" gradientUnits="userSpaceOnUse"><stop offset="0" stop-color="#ff7002"/><stop offset="0.3" stop-color="#fe7304"/><stop offset="0.5" stop-color="#fc7c0a"/><stop offset="0.68" stop-color="#f88b15"/><stop offset="0.84" stop-color="#f3a125"/><stop offset="0.98" stop-color="#ecbd39"/><stop offset="1" stop-color="#ebc03b"/></linearGradient><linearGradient id="linear-gradient-4" x1="375.5" y1="368.05" x2="394.67" y2="368.05" xlink:href="#linear-gradient"/><clipPath id="clip-path"><rect class="cls-1" x="204.36" y="365.87" width="23.52" height="23.52"/></clipPath></defs><g class="cls-2"><g id="Layer_1" data-name="Layer 1"><rect class="cls-3" x="146.11" y="241.29" width="67.77" height="67.77"/><rect class="cls-4" x="249.7" y="233.29" width="236.6" height="161.74" rx="7.84"/><rect class="cls-5" x="94.67" y="42.23" width="236.6" height="161.74" rx="7.84"/><rect class="cls-6" x="94.67" y="42.23" width="236.6" height="161.74" rx="7.84"/><path class="cls-7" d="M126.29,118.43s13.45,45.26,61.63,48.65l1.41-40.45-9.3-1.89s-15.07,4.44-38.32-26.1Z"/><path class="cls-7" d="M262.56,91.1l0-2.63,6.28,2.91a3.51,3.51,0,0,1,1.93,3.2V101a3.42,3.42,0,0,1-2.31,3.34l-5.73,1.75,0-3.06a46.34,46.34,0,0,1-3.89,13.85h11.58a5.61,5.61,0,0,1,5.58,5.63v15.64c16.61,19.51,33,45.56,38.44,56.32,1.48,3,1.91,7.87,2.12,10.22l-4-.23-126-.19-.47-34.36,1.29-36.66-.22-4.57,5.15,2.19"/><path class="cls-8" d="M262.56,91.1l0-2.63,6.28,2.91a3.51,3.51,0,0,1,1.93,3.2V101a3.42,3.42,0,0,1-2.31,3.34l-5.73,1.75,0-3.06a46.34,46.34,0,0,1-3.89,13.85h11.58a5.61,5.61,0,0,1,5.58,5.63v15.64c16.61,19.51,33,45.56,38.44,56.32,1.48,3,1.91,6.87,2.12,9.22l-5,.26-125,.32-.47-35.46"/><path class="cls-9" d="M271.47,203.47l-2.12-9.21c.08.06-3.51-13.47-3.53-13.74l10.36,13.38c1.89,2.72,5,7.3,6.89,10.07"/><path class="cls-6" d="M250.09,130.66s-15.46,21-52.71,10.06c0,0,17.66,18.07,49.11,6.59"/><path class="cls-7" d="M172.22,89.91v-.63l-4.85,2.25a4.09,4.09,0,0,0-2.27,3.76v7.59a4,4,0,0,0,2.71,3.94l4.39,1.34"/><path class="cls-8" d="M172.22,89.91v-.63l-4.85,2.25a4.09,4.09,0,0,0-2.27,3.76v7.59a4,4,0,0,0,2.71,3.94l4.39,1.34"/><path class="cls-10" d="M217.22,144.69a46.32,46.32,0,1,0-45.88-46.32A46.1,46.1,0,0,0,217.22,144.69Z"/><path class="cls-5" d="M223.61,46.52l-.21,5.73"/><path class="cls-11" d="M224.52,46A6.57,6.57,0,1,0,218,39.41,6.53,6.53,0,0,0,224.52,46Z"/><path class="cls-10" d="M171,97.56c-.45,14.53,15,30.86,34.73,31.47s36.15-14.7,36.61-29.22,0-26.33-34.84-27.43C174.24,71.36,171.47,83,171,97.56Z"/><path class="cls-7" d="M267.06,182.43s-31.3-21.86-17-51.77Z"/><path class="cls-8" d="M267.06,182.43s-31.3-21.86-17-51.77"/><path class="cls-7" d="M186.6,170c-.77-21.57-.48-26.17.78-36.22Z"/><path class="cls-7" d="M177.29,124.74s-.31,27.82,8.28,43.44Z"/><path class="cls-8" d="M177.29,124.74s-.06,29.14,8.53,44.76"/><path class="cls-5" d="M227.71,165.45h9.74a1,1,0,0,0,1-1V154.25a1,1,0,0,0-1-1h-9.74a1,1,0,0,0-1,1v10.16A1,1,0,0,0,227.71,165.45Z"/><path class="cls-8" d="M267.06,129.75c-16.81,31.4-1.11,51.12-1.11,51.12l3.34,13.46"/><path class="cls-8" d="M128.81,126.63s13.55,32.56,57.25,43.3c0,0,.56-29,1.29-36.66"/><path class="cls-8" d="M147,103.79s16.24,22.56,32.76,20.86"/><path class="cls-8" d="M255.24,124.15s11.57,2.31,20.71,14"/><polyline class="cls-12" points="124.31 124.74 124.31 139.93 137.64 139.93 137.64 124.74"/><polyline class="cls-8" points="124.31 124.74 124.31 139.93 137.64 139.93 137.64 124.74"/><polyline class="cls-13" points="137.64 93.59 137.64 78.4 124.31 78.4 124.31 93.59"/><polyline class="cls-10" points="124.22 77.64 131.11 60.46 137.72 77.62"/><polyline class="cls-8" points="137.64 93.59 137.64 78.4 124.31 78.4 124.31 93.59"/><polygon class="cls-14" points="127.95 68.33 134.07 68.33 131.11 60.46 127.95 68.33"/><path class="cls-10" d="M131.11,126.18a17,17,0,1,0-16.88-17A17,17,0,0,0,131.11,126.18Z"/><path class="cls-10" d="M338.44,260.77v-.64l-4.79,2.4a4.11,4.11,0,0,0-2.15,3.84l.23,7.58a4.05,4.05,0,0,0,2.84,3.85L339,279"/><path class="cls-10" d="M429.53,277.74l0,.63,4.78-2.4a4.11,4.11,0,0,0,2.16-3.83l-.24-7.58a4,4,0,0,0-2.83-3.86L429,259.5"/><path class="cls-10" d="M351.2,300.52h-7a5.17,5.17,0,0,0-5.17,5.17v16.72L354.81,316l5.37-17Z"/><path class="cls-10" d="M417.1,300.52h7a5.17,5.17,0,0,1,5.17,5.17V316H406.7Z"/><path class="cls-10" d="M414.61,301.63s58.14,44.84,37.05,93.39H324c-15,0-7.46-25.56-7.46-25.56,10.78-44.46,40-64.3,40-64.3"/><path class="cls-10" d="M385.1,314.14a46.11,46.11,0,0,0,44.44-47.71c-.79-25.57-22-45.67-47.28-44.89a46.32,46.32,0,0,0,2.84,92.6Z"/><path class="cls-5" d="M384.2,214.91l0,5.74"/><path class="cls-11" d="M384.4,215.67a6.57,6.57,0,1,0-6.7-6.37A6.54,6.54,0,0,0,384.4,215.67Z"/><path class="cls-10" d="M347.55,283.12c0,14.53,16,30.37,35.69,30.38s35.68-15.81,35.69-30.33-.81-26.31-35.67-26.35C350,256.83,347.55,268.59,347.55,283.12Z"/><path class="cls-10" d="M339,395l-8.24-45.32a8,8,0,0,1,7.9-9.46h92.51a8,8,0,0,1,7.89,9.48L430.72,395Z"/><path class="cls-10" d="M348.94,340.24a77.93,77.93,0,0,0,.39-28.71"/><path class="cls-10" d="M359.41,306.86s7.38,23-6,33.38"/><path class="cls-10" d="M424.21,340.24c-3.64-18.9-1.46-31.49-1.46-31.49"/><path class="cls-10" d="M412.67,303.52s-7.38,25.36,6,36.72"/><circle class="cls-15" cx="385.08" cy="368.05" r="9.59"/><circle class="cls-16" cx="385.08" cy="368.05" r="9.59"/><circle class="cls-8" cx="385.08" cy="368.05" r="9.59"/><polygon class="cls-7" points="76.63 203.74 50.3 203.74 46.21 182.21 81.4 182.21 76.63 203.74"/><path class="cls-17" d="M53,181.69a14.17,14.17,0,1,1,25-9.16,16.16,16.16,0,0,1-2.9,9.27"/><polygon class="cls-10" points="77.36 203.74 49.62 203.74 46.21 182.21 81.44 182.21 77.36 203.74"/><line class="cls-5" x1="71.97" y1="171.04" x2="72.74" y2="171.04"/><line class="cls-5" x1="71.29" y1="177.85" x2="72.06" y2="177.85"/><line class="cls-5" x1="74.69" y1="164.23" x2="75.46" y2="164.23"/><line class="cls-5" x1="67.88" y1="164.23" x2="68.65" y2="164.23"/><line class="cls-5" x1="61.07" y1="174.44" x2="61.84" y2="174.44"/><line class="cls-5" x1="54.26" y1="178.53" x2="55.04" y2="178.53"/><line class="cls-5" x1="49.5" y1="171.72" x2="50.27" y2="171.72"/><line class="cls-5" x1="51.54" y1="164.91" x2="52.31" y2="164.91"/><line class="cls-5" x1="58.35" y1="168.31" x2="59.12" y2="168.31"/><line class="cls-5" x1="58.35" y1="159.46" x2="59.12" y2="159.46"/><line class="cls-5" x1="69.24" y1="159.46" x2="70.02" y2="159.46"/><line class="cls-10" x1="47.91" y1="192.97" x2="79.58" y2="192.97"/><line class="cls-9" x1="102.51" y1="203.96" x2="30.87" y2="203.96"/><rect class="cls-3" x="357.44" y="93.96" width="92.33" height="92.33"/><rect class="cls-14" x="189.39" y="279.65" width="103.42" height="60.82"/><rect class="cls-10" x="184.77" y="275.37" width="103.42" height="60.82"/><path class="cls-6" d="M373.55,313s15.23,9.47,37.1,4.86l3-17.36S403.05,315.5,373.55,313Z"/><path class="cls-18" d="M389.46,76.34A20,20,0,1,0,375.63,101c.3-.08.57-.2.85-.29l11.12,9.53-3.5-14.1A20,20,0,0,0,389.46,76.34Z"/><path class="cls-5" d="M359.28,86.86c-.31-2.82-.54-6,1.2-8.2a6.4,6.4,0,0,1,8-1.34,8.33,8.33,0,0,1,3.92,7.39c0,1-.42,2.28-1.44,2.47s-1.9-1-2.19-2.07A7.75,7.75,0,0,1,370.2,78a6.1,6.1,0,0,1,6.85-1.66,5.06,5.06,0,0,1,2.63,6.29"/><rect class="cls-14" x="400.93" y="112.05" width="68.14" height="45.91" rx="11.09"/><rect class="cls-18" x="403.94" y="108.64" width="68.14" height="45.91" rx="11.09"/><polygon class="cls-19" points="429.76 120.15 429.76 142.28 449.15 131.22 429.76 120.15"/><line class="cls-9" x1="478.45" y1="395.02" x2="519.92" y2="395.02"/><g class="cls-20"><path class="cls-10" d="M218.56,375.19l7.49,2.44-7.49,2.44-2.44,7.49-2.44-7.49-7.49-2.44,7.49-2.44,2.44-7.49Z"/></g><path class="cls-14" d="M162.87,346.58l5.36,1.74-5.36,1.75-1.74,5.36-1.75-5.36L154,348.32l5.36-1.74,1.75-5.36Z"/><line class="cls-9" x1="528.79" y1="395.02" x2="543.07" y2="395.02"/><line class="cls-10" x1="194.19" y1="287" x2="228.48" y2="287"/><line class="cls-10" x1="194.19" y1="312" x2="248.48" y2="312"/><line class="cls-10" x1="237.92" y1="287" x2="263.21" y2="287"/><line class="cls-10" x1="194.19" y1="322" x2="219.48" y2="322"/><line class="cls-10" x1="230.01" y1="322" x2="242.3" y2="322"/><path class="cls-10" d="M198,303.45c-2,0-3.65-2.1-3.65-4.65,0-2,1.63-4.64,3.65-4.64"/><path class="cls-10" d="M222,294.16c2,0,3.64,2.1,3.64,4.64,0,2-1.63,4.65-3.64,4.65"/><line class="cls-10" x1="201.74" y1="299.13" x2="219.1" y2="299.13"/><text class="cls-21" transform="translate(229.04 302.18)">;</text><circle class="cls-14" cx="233.34" cy="287" r="0.85"/><circle class="cls-14" cx="224.34" cy="322" r="0.85"/><path class="cls-5" d="M406.84,340.28v-6.16a1,1,0,0,0-1-1h-9.74a1,1,0,0,0-1,1v6.16"/><line class="cls-9" x1="264.29" y1="203.97" x2="289.67" y2="203.97"/><line class="cls-9" x1="24.84" y1="203.96" x2="15.02" y2="203.96"/></g></g></svg>