<svg width="48" height="48" viewBox="0 0 48 48" fill="none" xmlns="http://www.w3.org/2000/svg">
<path d="M45.172 18C45.711 19.907 46 21.92 46 24C46 36.15 36.15 46 24 46C11.85 46 2 36.15 2 24C2 11.85 11.85 2 24 2C28.651 2 33.018 3.475 36.572 5.938" stroke="#6B6B6B" stroke-width="1.5" stroke-linecap="round" stroke-linejoin="round"/>
<path fill-rule="evenodd" clip-rule="evenodd" d="M10.25 24C10.25 16.4061 16.4061 10.25 24 10.25C31.5939 10.25 37.75 16.4061 37.75 24C37.75 31.5939 31.5939 37.75 24 37.75C16.4061 37.75 10.25 31.5939 10.25 24ZM24 28C26.2091 28 28 26.2091 28 24C28 21.7909 26.2091 20 24 20C21.7909 20 20 21.7909 20 24C20 26.2091 21.7909 28 24 28Z" fill="url(#paint0_linear)"/>
<path d="M24 9.5C15.9919 9.5 9.5 15.9919 9.5 24H11C11 16.8203 16.8203 11 24 11V9.5ZM38.5 24C38.5 15.9919 32.0081 9.5 24 9.5V11C31.1797 11 37 16.8203 37 24H38.5ZM24 38.5C32.0081 38.5 38.5 32.0081 38.5 24H37C37 31.1797 31.1797 37 24 37V38.5ZM9.5 24C9.5 32.0081 15.9919 38.5 24 38.5V37C16.8203 37 11 31.1797 11 24H9.5ZM27.25 24C27.25 25.7949 25.7949 27.25 24 27.25V28.75C26.6234 28.75 28.75 26.6234 28.75 24H27.25ZM24 20.75C25.7949 20.75 27.25 22.2051 27.25 24H28.75C28.75 21.3766 26.6234 19.25 24 19.25V20.75ZM20.75 24C20.75 22.2051 22.2051 20.75 24 20.75V19.25C21.3766 19.25 19.25 21.3766 19.25 24H20.75ZM24 27.25C22.2051 27.25 20.75 25.7949 20.75 24H19.25C19.25 26.6234 21.3766 28.75 24 28.75V27.25Z" fill="#6B6B6B"/>
<path d="M24 28C26.2091 28 28 26.2091 28 24C28 21.7909 26.2091 20 24 20C21.7909 20 20 21.7909 20 24C20 26.2091 21.7909 28 24 28Z" stroke="#6B6B6B" stroke-width="1.5" stroke-linecap="round" stroke-linejoin="round"/>
<path d="M40 12C42.2091 12 44 10.2091 44 8C44 5.79086 42.2091 4 40 4C37.7909 4 36 5.79086 36 8C36 10.2091 37.7909 12 40 12Z" stroke="#6B6B6B" stroke-width="1.5" stroke-linecap="round" stroke-linejoin="round"/>
<defs>
<linearGradient id="paint0_linear" x1="24" y1="10.25" x2="24" y2="37.75" gradientUnits="userSpaceOnUse">
<stop stop-color="#EE7C48"/>
<stop offset="1" stop-color="#EDAA52"/>
</linearGradient>
</defs>
</svg>
