<svg width="48" height="48" viewBox="0 0 48 48" fill="none" xmlns="http://www.w3.org/2000/svg">
<path d="M6 23C7.65685 23 9 21.6569 9 20C9 18.3431 7.65685 17 6 17C4.34315 17 3 18.3431 3 20C3 21.6569 4.34315 23 6 23Z" stroke="#6B6B6B" stroke-width="1.5" stroke-linecap="round" stroke-linejoin="round"/>
<path d="M8.12012 17.88L15.8801 10.12" stroke="#6B6B6B" stroke-width="1.5" stroke-linecap="round" stroke-linejoin="round"/>
<path d="M27.8801 17.88L20.1201 10.12" stroke="#6B6B6B" stroke-width="1.5" stroke-linecap="round" stroke-linejoin="round"/>
<path d="M32.1201 17.88L39.8801 10.12" stroke="#6B6B6B" stroke-width="1.5" stroke-linecap="round" stroke-linejoin="round"/>
<path d="M18 11C19.6569 11 21 9.65685 21 8C21 6.34315 19.6569 5 18 5C16.3431 5 15 6.34315 15 8C15 9.65685 16.3431 11 18 11Z" stroke="#6B6B6B" stroke-width="1.5" stroke-linecap="round" stroke-linejoin="round"/>
<path d="M42 11C43.6569 11 45 9.65685 45 8C45 6.34315 43.6569 5 42 5C40.3431 5 39 6.34315 39 8C39 9.65685 40.3431 11 42 11Z" stroke="#6B6B6B" stroke-width="1.5" stroke-linecap="round" stroke-linejoin="round"/>
<path d="M30 23C31.6569 23 33 21.6569 33 20C33 18.3431 31.6569 17 30 17C28.3431 17 27 18.3431 27 20C27 21.6569 28.3431 23 30 23Z" stroke="#6B6B6B" stroke-width="1.5" stroke-linecap="round" stroke-linejoin="round"/>
<path d="M9 33H3V43H9V33Z" stroke="#6B6B6B" stroke-width="1.5" stroke-linecap="round" stroke-linejoin="round"/>
<path d="M21 21H15V43H21V21Z" fill="url(#paint0_linear)" stroke="#6B6B6B" stroke-width="1.5" stroke-linecap="round" stroke-linejoin="round"/>
<path d="M33 33H27V43H33V33Z" stroke="#6B6B6B" stroke-width="1.5" stroke-linecap="round" stroke-linejoin="round"/>
<path d="M45 21H39V43H45V21Z" fill="url(#paint1_linear)" stroke="#6B6B6B" stroke-width="1.5" stroke-linecap="round" stroke-linejoin="round"/>
<defs>
<linearGradient id="paint0_linear" x1="18" y1="21" x2="18" y2="43" gradientUnits="userSpaceOnUse">
<stop stop-color="#EE7C48"/>
<stop offset="1" stop-color="#EDAA52"/>
</linearGradient>
<linearGradient id="paint1_linear" x1="42" y1="21" x2="42" y2="43" gradientUnits="userSpaceOnUse">
<stop stop-color="#EE7C48"/>
<stop offset="1" stop-color="#EDAA52"/>
</linearGradient>
</defs>
</svg>
