<svg width="48" height="48" viewBox="0 0 48 48" fill="none" xmlns="http://www.w3.org/2000/svg">
<g clip-path="url(#clip0)">
<path d="M6 14V6C6 4.93913 6.42143 3.92172 7.17157 3.17157C7.92172 2.42143 8.93913 2 10 2H38C39.0609 2 40.0783 2.42143 40.8284 3.17157C41.5786 3.92172 42 4.93913 42 6V42C42 43.0609 41.5786 44.0783 40.8284 44.8284C40.0783 45.5786 39.0609 46 38 46H10C8.93913 46 7.92172 45.5786 7.17157 44.8284C6.42143 44.0783 6 43.0609 6 42V34" stroke="#6B6B6B" stroke-width="1.5" stroke-linecap="round" stroke-linejoin="round"/>
<path d="M19.0476 11.0476L15.8095 14.2857L23.0952 21.5714H-2V26.4286H23.0952L15.8095 33.7143L19.0476 36.9524L32 24L19.0476 11.0476Z" fill="url(#paint0_linear)" stroke="#6B6B6B" stroke-width="1.5" stroke-linecap="round" stroke-linejoin="round"/>
</g>
<defs>
<linearGradient id="paint0_linear" x1="15" y1="11.0476" x2="15" y2="36.9524" gradientUnits="userSpaceOnUse">
<stop stop-color="#EE7C48"/>
<stop offset="1" stop-color="#EDAA52"/>
</linearGradient>
<clipPath id="clip0">
<rect width="48" height="48" fill="white"/>
</clipPath>
</defs>
</svg>
