<svg width="48" height="48" viewBox="0 0 48 48" fill="none" xmlns="http://www.w3.org/2000/svg">
<path fill-rule="evenodd" clip-rule="evenodd" d="M27.3886 26.3583C27.4391 26.389 27.4868 26.4261 27.5304 26.4697L33.7214 32.6617C34.0142 32.9546 34.0142 33.4295 33.7213 33.7223C31.2335 36.2101 27.797 37.75 24 37.75C16.4058 37.75 10.25 31.5942 10.25 24C10.25 16.4058 16.4058 10.25 24 10.25C27.7958 10.25 31.2333 11.7887 33.7212 14.2756C34.0142 14.5684 34.0143 15.0432 33.7215 15.3362L27.5305 21.5302C27.4868 21.5739 27.4391 21.611 27.3886 21.6417C27.3758 21.6569 27.3622 21.6717 27.3479 21.6862C27.0564 21.9804 26.5815 21.9826 26.2873 21.6911C25.6992 21.1085 24.8922 20.75 24 20.75C22.2051 20.75 20.75 22.2051 20.75 24C20.75 25.7949 22.2051 27.25 24 27.25C24.8922 27.25 25.6992 26.8915 26.2873 26.3089C26.5815 26.0174 27.0564 26.0196 27.3479 26.3138C27.3622 26.3283 27.3758 26.3431 27.3886 26.3583Z" fill="url(#paint0_linear)"/>
<path fill-rule="evenodd" clip-rule="evenodd" d="M27.3886 26.3583C27.4391 26.389 27.4868 26.4261 27.5304 26.4697L33.7214 32.6617C34.0142 32.9546 34.0142 33.4295 33.7213 33.7223C31.2335 36.2101 27.797 37.75 24 37.75C16.4058 37.75 10.25 31.5942 10.25 24C10.25 16.4058 16.4058 10.25 24 10.25C27.7958 10.25 31.2333 11.7887 33.7212 14.2756C34.0142 14.5684 34.0143 15.0432 33.7215 15.3362L27.5305 21.5302C27.4868 21.5739 27.4391 21.611 27.3886 21.6417C27.3758 21.6569 27.3622 21.6717 27.3479 21.6862C27.0564 21.9804 26.5815 21.9826 26.2873 21.6911C25.6992 21.1085 24.8922 20.75 24 20.75C22.2051 20.75 20.75 22.2051 20.75 24C20.75 25.7949 22.2051 27.25 24 27.25C24.8922 27.25 25.6992 26.8915 26.2873 26.3089C26.5815 26.0174 27.0564 26.0196 27.3479 26.3138C27.3622 26.3283 27.3758 26.3431 27.3886 26.3583ZM11.75 24C11.75 17.2342 17.2342 11.75 24 11.75C27.1124 11.75 29.9524 12.9096 32.1142 14.8224L26.7864 20.1528C26.0039 19.5853 25.0406 19.25 24 19.25C21.3766 19.25 19.25 21.3766 19.25 24C19.25 26.6234 21.3766 28.75 24 28.75C25.0407 28.75 26.0039 28.4147 26.7865 27.8472L32.1143 33.1758C29.9525 35.0897 27.1132 36.25 24 36.25C17.2342 36.25 11.75 30.7658 11.75 24Z" fill="#6B6B6B"/>
<path d="M26.8281 26.828L39.5561 39.556" stroke="#6B6B6B" stroke-width="1.5" stroke-linecap="round" stroke-linejoin="round"/>
<path d="M39.5561 8.44397L26.8281 21.172" stroke="#6B6B6B" stroke-width="1.5" stroke-linecap="round" stroke-linejoin="round"/>
<path d="M24 46C36.1503 46 46 36.1503 46 24C46 11.8497 36.1503 2 24 2C11.8497 2 2 11.8497 2 24C2 36.1503 11.8497 46 24 46Z" stroke="#6B6B6B" stroke-width="1.5" stroke-linecap="round" stroke-linejoin="round"/>
<path d="M24 28C26.2091 28 28 26.2091 28 24C28 21.7909 26.2091 20 24 20C21.7909 20 20 21.7909 20 24C20 26.2091 21.7909 28 24 28Z" stroke="#6B6B6B" stroke-width="1.5" stroke-linecap="round" stroke-linejoin="round"/>
<defs>
<linearGradient id="paint0_linear" x1="22.0955" y1="10.25" x2="22.0955" y2="37.75" gradientUnits="userSpaceOnUse">
<stop stop-color="#EE7C48"/>
<stop offset="1" stop-color="#EDAA52"/>
</linearGradient>
</defs>
</svg>
