<svg id="Layer_1" data-name="Layer 1" xmlns="http://www.w3.org/2000/svg" xmlns:xlink="http://www.w3.org/1999/xlink" viewBox="0 0 24 24"><defs><style>.cls-1{fill:#ffcac0;}.cls-2,.cls-4{fill:none;}.cls-3{clip-path:url(#clip-path);}.cls-4{stroke:#ff6945;stroke-miterlimit:10;stroke-width:0.37px;}.cls-5{fill:#294347;}.cls-6{fill:#2277db;}.cls-7{clip-path:url(#clip-path-2);}.cls-8{fill:#fff;}.cls-9{fill:#ff6945;}.cls-10{fill:#061018;}</style><clipPath id="clip-path"><circle class="cls-1" cx="12" cy="12" r="12"/></clipPath><clipPath id="clip-path-2"><path class="cls-2" d="M20.16,12.23l1.13.73a.6.6,0,0,1,.18.83l-3.69,5.7-2.66,1.87.52-3.25,3.69-5.7A.6.6,0,0,1,20.16,12.23Z"/></clipPath></defs><circle class="cls-1" cx="12" cy="12" r="12"/><g class="cls-3"><path class="cls-4" d="M-3.41,12.32A88.88,88.88,0,0,1,22.48-2.52c-.28,2.17-1.75,4-3.21,5.6-2.65,3-5.49,5.71-8.33,8.47l-13,12.7a147,147,0,0,0,17.33-13.1C19.47,7.44,23.52,3.46,28.33.53,24.52,11,12.28,17,9.44,27.82"/></g><circle class="cls-5" cx="12.05" cy="12.29" r="7.7"/><path class="cls-5" d="M19.29,13.51l1.05-.43a.92.92,0,0,0,.58-.91l0-1a.92.92,0,0,0-.65-.86L19.15,10Z"/><path class="cls-5" d="M4.84,10l-1.08.36a1,1,0,0,0-.64.87l0,1a1,1,0,0,0,.6.9l1,.41Z"/><circle class="cls-5" cx="11.97" cy="2.72" r="1.25"/><rect class="cls-5" x="11.76" y="3.66" width="0.45" height="1.47"/><path class="cls-1" d="M17.91,11.92c.07,2.27-2.37,4.81-5.46,4.9s-5.69-2.29-5.76-4.55,0-4.1,5.48-4.27C17.4,7.84,17.84,9.66,17.91,11.92Z"/><path class="cls-6" d="M20,12.12l1.48,1a.4.4,0,0,1,.12.55l-3.8,5.87-2.66,1.87.52-3.25,3.8-5.87A.38.38,0,0,1,20,12.12Z"/><g class="cls-7"><polygon class="cls-8" points="15.64 18.11 15.12 21.36 17.78 19.49 15.64 18.11"/></g><rect class="cls-9" x="18.87" y="13.28" width="2.56" height="0.39" transform="translate(29.77 35.72) rotate(-147.12)"/><polygon class="cls-10" points="15.39 19.64 16.53 20.37 15.12 21.36 15.39 19.64"/></svg>