<svg id="Layer_1" data-name="Layer 1" xmlns="http://www.w3.org/2000/svg" xmlns:xlink="http://www.w3.org/1999/xlink" viewBox="0 0 24 24"><defs><style>.cls-1{fill:none;}.cls-2{fill:#fbe8ad;}.cls-3{clip-path:url(#clip-path);}.cls-4{fill:#0a4f93;}.cls-5{fill:#ff6945;}.cls-6{fill:#e0884c;}.cls-7,.cls-9{fill:#262626;}.cls-7{stroke:#262626;stroke-miterlimit:10;stroke-width:0.14px;}.cls-8{fill:#d1702f;}</style><clipPath id="clip-path"><ellipse class="cls-1" cx="12.01" cy="12.03" rx="11.99" ry="11.97"/></clipPath></defs><ellipse class="cls-2" cx="12.01" cy="12.03" rx="11.99" ry="11.97"/><ellipse class="cls-1" cx="11.99" cy="11.97" rx="11.99" ry="11.97"/><g class="cls-3"><ellipse class="cls-4" cx="11.91" cy="12.36" rx="7.7" ry="7.72"/><ellipse class="cls-5" cx="22.83" cy="7.26" rx="3.59" ry="3.64"/><ellipse class="cls-5" cx="2.91" cy="19.15" rx="1.64" ry="1.67"/><ellipse class="cls-5" cx="5.83" cy="2.56" rx="2.09" ry="2.13"/><path class="cls-6" d="M21.6,21.29s-1.45-6.57-6.14-5.14a3.76,3.76,0,0,0-2.19,2.08.83.83,0,0,1-.68.49l-1.23.14a1.23,1.23,0,0,0-1,1.55c.36,1.33,1.52,3.1,5.23,3L15.19,25"/><ellipse class="cls-7" cx="14.55" cy="18.75" rx="0.17" ry="0.39"/><path class="cls-8" d="M21.6,21.29c.13.85-1.43,1-1.43,1-.42,2.19-2,1.73-2,1.73-.79,2-3,1-3,1l1.4-5.72a3.24,3.24,0,0,1,.82-1.48h0a1.83,1.83,0,0,1,2.61,0h0A8.8,8.8,0,0,1,21.6,21.29Z"/></g><path class="cls-9" d="M10.43,20.79l1.73-2S9.55,18.59,10.43,20.79Z"/><path class="cls-4" d="M19.21,14.08l1.05-.44a.92.92,0,0,0,.58-.9l0-1a.92.92,0,0,0-.65-.85l-1.08-.35Z"/><path class="cls-4" d="M4.65,10.54l-1.08.37a.92.92,0,0,0-.64.86l0,1a.94.94,0,0,0,.6.89l1.06.42Z"/><circle class="cls-4" cx="11.64" cy="2.73" r="1.25"/><path class="cls-2" d="M17.46,11.82c.07,2.26-2.36,4.8-5.46,4.9s-5.69-2.29-5.76-4.55,0-4.1,5.48-4.27C17,7.74,17.39,9.56,17.46,11.82Z"/><rect class="cls-4" x="11.45" y="3.59" width="0.45" height="1.47"/></svg>